<svg width="50" height="50" viewBox="0 0 50 50" fill="none" xmlns="http://www.w3.org/2000/svg">
<g id="Icons">
<rect width="50" height="50" rx="10" fill="white"/>
<path id="Vector" d="M21.3129 29.6957L34.1012 17.1122C34.4029 16.8152 34.755 16.6667 35.1574 16.6667C35.5598 16.6667 35.9119 16.8152 36.2137 17.1122C36.5154 17.4091 36.6663 17.762 36.6663 18.1708C36.6663 18.5796 36.5154 18.932 36.2137 19.228L22.3692 32.888C22.0674 33.1849 21.7153 33.3334 21.3129 33.3334C20.9106 33.3334 20.5585 33.1849 20.2567 32.888L13.7683 26.5034C13.4665 26.2065 13.3216 25.8541 13.3337 25.4463C13.3458 25.0384 13.5032 24.6856 13.806 24.3876C14.1088 24.0897 14.4674 23.9412 14.8819 23.9422C15.2963 23.9432 15.6544 24.0916 15.9562 24.3876L21.3129 29.6957Z" fill="#FF5C39"/>
</g>
</svg>
