<svg width="22" height="22" viewBox="0 0 22 22" fill="none" xmlns="http://www.w3.org/2000/svg">
<g id="mdi:web">
<path id="Vector" d="M14.9968 12.8335C15.0702 12.2285 15.1252 11.6235 15.1252 11.0002C15.1252 10.3768 15.0702 9.77183 14.9968 9.16683H18.0952C18.2418 9.7535 18.3335 10.3677 18.3335 11.0002C18.3335 11.6327 18.2418 12.2468 18.0952 12.8335M13.3743 17.9302C13.9243 16.9127 14.346 15.8127 14.6393 14.6668H17.3435C16.4554 16.1961 15.0464 17.3545 13.3743 17.9302ZM13.1452 12.8335H8.85516C8.7635 12.2285 8.7085 11.6235 8.7085 11.0002C8.7085 10.3768 8.7635 9.76266 8.85516 9.16683H13.1452C13.2277 9.76266 13.2918 10.3768 13.2918 11.0002C13.2918 11.6235 13.2277 12.2285 13.1452 12.8335ZM11.0002 18.2968C10.2393 17.1968 9.62516 15.9777 9.24933 14.6668H12.751C12.3752 15.9777 11.761 17.1968 11.0002 18.2968ZM7.3335 7.3335H4.65683C5.53578 5.80011 6.94373 4.63986 8.61683 4.07016C8.06683 5.08766 7.65433 6.18766 7.3335 7.3335ZM4.65683 14.6668H7.3335C7.65433 15.8127 8.06683 16.9127 8.61683 17.9302C6.94723 17.3542 5.54127 16.1956 4.65683 14.6668ZM3.90516 12.8335C3.7585 12.2468 3.66683 11.6327 3.66683 11.0002C3.66683 10.3677 3.7585 9.7535 3.90516 9.16683H7.0035C6.93016 9.77183 6.87516 10.3768 6.87516 11.0002C6.87516 11.6235 6.93016 12.2285 7.0035 12.8335M11.0002 3.69433C11.761 4.79433 12.3752 6.02266 12.751 7.3335H9.24933C9.62516 6.02266 10.2393 4.79433 11.0002 3.69433ZM17.3435 7.3335H14.6393C14.3524 6.19817 13.9276 5.10223 13.3743 4.07016C15.061 4.64766 16.4635 5.81183 17.3435 7.3335ZM11.0002 1.8335C5.931 1.8335 1.8335 5.9585 1.8335 11.0002C1.8335 13.4313 2.79927 15.7629 4.51835 17.482C5.36955 18.3332 6.38008 19.0084 7.49223 19.4691C8.60438 19.9297 9.79638 20.1668 11.0002 20.1668C13.4313 20.1668 15.7629 19.2011 17.482 17.482C19.2011 15.7629 20.1668 13.4313 20.1668 11.0002C20.1668 9.79638 19.9297 8.60438 19.4691 7.49223C19.0084 6.38008 18.3332 5.36955 17.482 4.51835C16.6308 3.66715 15.6202 2.99194 14.5081 2.53127C13.3959 2.0706 12.2039 1.8335 11.0002 1.8335Z" fill="#190000"/>
</g>
</svg>
