<svg width="140" height="35" viewBox="0 0 140 35" fill="none" xmlns="http://www.w3.org/2000/svg">
<path d="M5.19438 28.632C4.87438 28.8027 4.52238 28.824 4.13838 28.696C3.75438 28.5893 3.42371 28.3653 3.14638 28.024C2.89038 27.704 2.75171 27.3093 2.73038 26.84C2.81571 26.648 2.92238 26.488 3.05038 26.36C3.17838 26.232 3.32771 26.1253 3.49838 26.04C3.58371 25.9973 3.65838 25.976 3.72238 25.976C3.80771 25.9547 3.89304 25.944 3.97838 25.944C3.99971 25.944 4.10638 25.848 4.29838 25.656C4.49038 25.4427 4.70371 25.208 4.93837 24.952C5.19438 24.696 5.40771 24.4827 5.57838 24.312C5.77038 24.12 5.85571 24.0347 5.83438 24.056C6.19704 23.6293 6.52771 23.2347 6.82638 22.872C7.12504 22.488 7.54104 21.9333 8.07438 21.208C8.24504 20.9733 8.42638 20.7067 8.61838 20.408C8.83171 20.088 9.04504 19.768 9.25838 19.448C9.42904 19.1707 9.58904 18.904 9.73838 18.648C9.90904 18.392 10.0584 18.168 10.1864 17.976C10.293 17.848 10.389 17.72 10.4744 17.592C10.581 17.4427 10.677 17.304 10.7624 17.176L10.8904 16.792C10.997 16.4933 11.1144 16.152 11.2424 15.768C11.3917 15.384 11.5304 15.0107 11.6584 14.648C11.8077 14.2853 11.925 13.9653 12.0104 13.688C12.117 13.4107 12.1917 13.2293 12.2344 13.144C12.2557 13.1013 12.2877 13.0267 12.3304 12.92C12.373 12.792 12.437 12.6533 12.5224 12.504C12.6717 12.2053 12.8317 11.8533 13.0024 11.448C13.1944 11.0213 13.3864 10.5947 13.5784 10.168C13.7704 9.74133 13.941 9.368 14.0904 9.048C13.941 9.09067 13.781 9.15467 13.6104 9.24C13.461 9.32533 13.2797 9.42133 13.0664 9.528C12.3197 9.89067 11.6904 10.1573 11.1784 10.328C10.6877 10.4773 10.293 10.5413 9.99438 10.52C9.69571 10.4773 9.47171 10.36 9.32238 10.168C8.95971 9.67733 8.86371 9.144 9.03438 8.568C9.20504 7.992 9.52504 7.61867 9.99438 7.448C10.293 7.34133 10.5917 7.23466 10.8904 7.128C11.2104 7.02133 11.5197 6.91467 11.8184 6.808C12.117 6.68 12.4157 6.56267 12.7144 6.456C13.0344 6.34933 13.3437 6.24267 13.6424 6.136C14.197 5.96533 14.709 5.80533 15.1784 5.656C15.669 5.50667 16.117 5.35733 16.5224 5.208C16.693 5.208 16.917 5.19733 17.1944 5.176C17.493 5.13333 17.7917 5.09067 18.0904 5.048C18.389 5.00533 18.6557 4.96267 18.8904 4.92C19.1464 4.856 19.317 4.81333 19.4024 4.792C19.8504 4.77067 20.2664 4.81333 20.6504 4.92C21.0344 5.00533 21.365 5.144 21.6424 5.336C21.749 5.4 21.8344 5.464 21.8984 5.528C21.9837 5.592 22.069 5.66667 22.1544 5.752L22.8264 6.712C22.933 6.904 23.029 7.11733 23.1144 7.352C23.1997 7.56533 23.2744 7.8 23.3384 8.056C23.381 8.20533 23.3917 8.408 23.3704 8.664C23.3704 8.89867 23.3384 9.18667 23.2744 9.528C23.2104 9.86933 23.125 10.296 23.0184 10.808C22.9117 11.32 22.7624 11.928 22.5704 12.632C22.485 12.952 22.389 13.2933 22.2824 13.656C22.197 13.9973 22.101 14.3707 21.9944 14.776C21.9304 15.0533 21.8664 15.32 21.8024 15.576C21.7384 15.8107 21.6744 16.056 21.6104 16.312C21.5677 16.5467 21.5144 16.792 21.4504 17.048C21.3864 17.304 21.3117 17.5813 21.2264 17.88C21.141 18.4987 20.9917 19.192 20.7784 19.96C20.565 20.7067 20.3197 21.4747 20.0424 22.264C19.765 23.0533 19.4984 23.8 19.2424 24.504C19.0077 25.1867 18.8264 25.7733 18.6984 26.264C18.613 26.4133 18.5064 26.648 18.3784 26.968C18.2717 27.2667 18.133 27.5013 17.9624 27.672C17.685 27.928 17.4077 28.088 17.1304 28.152C16.8744 28.2373 16.6184 28.2267 16.3624 28.12C15.957 27.9493 15.6584 27.736 15.4664 27.48C15.2744 27.2453 15.221 26.9147 15.3064 26.488C15.349 26.424 15.4557 26.168 15.6264 25.72C15.8184 25.2507 16.021 24.728 16.2344 24.152C16.4477 23.5547 16.6397 23.0107 16.8104 22.52C17.0024 22.0293 17.1197 21.72 17.1624 21.592C17.2477 21.08 17.3437 20.5893 17.4504 20.12C17.5784 19.6507 17.7064 19.2347 17.8344 18.872C17.9624 18.488 18.0797 18.2 18.1864 18.008C18.2717 17.624 18.3464 17.272 18.4104 16.952C18.4744 16.6107 18.5384 16.2907 18.6024 15.992C18.6877 15.5653 18.7624 15.1813 18.8264 14.84C18.9117 14.4987 18.9864 14.1893 19.0504 13.912C19.1357 13.6133 19.2104 13.3467 19.2744 13.112L19.7864 10.84C19.8717 10.4347 19.957 10.04 20.0424 9.656C20.1277 9.25067 20.213 8.84533 20.2984 8.44C20.3197 8.376 20.3304 8.312 20.3304 8.248C20.3517 8.16267 20.373 8.088 20.3944 8.024C20.1384 8.024 19.765 8.04533 19.2744 8.088C18.7837 8.10933 18.3357 8.13067 17.9304 8.152C17.525 8.17333 17.301 8.20533 17.2584 8.248C17.2584 8.33333 17.205 8.536 17.0984 8.856C17.013 9.13333 16.885 9.464 16.7144 9.848C16.565 10.2107 16.405 10.5947 16.2344 11C16.0637 11.384 15.9037 11.7467 15.7544 12.088C15.605 12.408 15.4877 12.6533 15.4024 12.824C15.125 13.336 14.869 13.848 14.6344 14.36C14.421 14.872 14.197 15.3947 13.9624 15.928C13.877 16.2053 13.6957 16.632 13.4184 17.208C13.1624 17.7627 12.853 18.3813 12.4904 19.064C12.149 19.7467 11.797 20.4187 11.4344 21.08C11.0717 21.72 10.7304 22.2853 10.4104 22.776C10.0904 23.2453 9.79171 23.6613 9.51438 24.024C9.25838 24.3867 8.99171 24.7493 8.71438 25.112C8.43704 25.4533 8.09571 25.8693 7.69038 26.36C7.34904 26.8293 6.92238 27.288 6.41038 27.736C5.89838 28.2053 5.49304 28.504 5.19438 28.632ZM24.2961 26.328C24.2108 26.1573 24.0188 25.9867 23.7201 25.816C23.4428 25.6453 23.3041 25.5173 23.3041 25.432C23.3041 25.3467 23.2508 25.2187 23.1441 25.048C23.0588 24.856 22.9735 24.7173 22.8881 24.632C22.7815 24.504 22.8135 24.1947 22.9841 23.704C23.1548 23.192 23.4108 22.5733 23.7521 21.848C24.0935 21.1227 24.4668 20.3867 24.8721 19.64C25.0428 19.4693 25.2135 19.2453 25.3841 18.968C25.5548 18.6907 25.6828 18.5093 25.7681 18.424C25.7681 18.3387 25.8001 18.264 25.8641 18.2C25.9281 18.1147 26.0028 18.072 26.0881 18.072L26.3441 17.56C26.3868 17.4747 26.5148 17.304 26.7281 17.048C26.9628 16.792 27.2401 16.5147 27.5601 16.216C27.8801 15.896 28.2001 15.5973 28.5201 15.32C28.8615 15.0427 29.1388 14.84 29.3521 14.712C29.8001 14.4133 30.2588 14.2747 30.7281 14.296C31.2188 14.3173 31.6348 14.4667 31.9761 14.744C32.0401 14.808 32.1788 14.936 32.3921 15.128C32.6268 15.32 32.8828 15.5333 33.1601 15.768C33.4588 16.0027 33.7148 16.216 33.9281 16.408L35.1121 17.464L34.5681 19.064C34.2908 19.9173 34.2161 20.664 34.3441 21.304C34.4721 21.944 34.6748 22.4987 34.9521 22.968C35.0588 23.2027 35.1975 23.384 35.3681 23.512C35.5601 23.64 35.8055 23.7253 36.1041 23.768C36.2748 23.7893 36.4348 23.8533 36.5841 23.96C36.7335 24.0667 36.8081 24.2373 36.8081 24.472C36.8081 24.984 36.7121 25.3573 36.5201 25.592C36.3495 25.8053 36.1575 25.9333 35.9441 25.976C35.2401 26.0613 34.5681 25.9867 33.9281 25.752C33.2881 25.5173 32.7121 24.9093 32.2001 23.928C32.1148 23.8 31.9975 23.5653 31.8481 23.224C31.7201 22.8613 31.6455 22.6267 31.6241 22.52C31.5388 22.6267 31.4215 22.7653 31.2721 22.936C31.1441 23.0853 31.0161 23.224 30.8881 23.352C29.3735 24.888 28.0721 25.8907 26.9841 26.36C25.9175 26.808 25.0215 26.7973 24.2961 26.328ZM26.0561 23.672C26.2055 23.6933 26.4401 23.6187 26.7601 23.448C27.0801 23.256 27.5068 22.9467 28.0401 22.52C28.7655 21.9013 29.3628 21.3893 29.8321 20.984C30.3015 20.5787 30.7601 20.056 31.2081 19.416L31.9121 18.264C31.6988 17.7733 31.5068 17.4533 31.3361 17.304C31.1655 17.1547 30.9948 17.08 30.8241 17.08C30.5468 17.08 30.2161 17.2613 29.8321 17.624C29.4481 17.9653 29.0108 18.4773 28.5201 19.16C28.0508 19.8213 27.5175 20.6533 26.9201 21.656C26.6428 22.1253 26.4295 22.584 26.2801 23.032C26.1308 23.4587 26.0561 23.672 26.0561 23.672ZM45.6814 26.904C45.3187 26.776 44.988 26.584 44.6894 26.328C44.3907 26.072 44.1134 25.8053 43.8574 25.528C43.772 25.4213 43.644 25.1973 43.4734 24.856C43.324 24.4933 43.1427 24.088 42.9294 23.64C42.7374 23.1707 42.5347 22.7013 42.3214 22.232C42.1294 21.7627 41.948 21.3467 41.7774 20.984C41.6707 21.2613 41.5747 21.5387 41.4894 21.816C41.4254 22.072 41.3934 22.328 41.3934 22.584C41.2014 22.9253 41.0307 23.352 40.8814 23.864C40.7534 24.3547 40.6574 24.6853 40.5934 24.856C40.5294 25.1333 40.4014 25.4 40.2094 25.656C40.0387 25.8907 39.836 26.0933 39.6014 26.264C39.1534 26.2853 38.8227 26.2533 38.6094 26.168C38.4174 26.0613 38.172 25.8267 37.8734 25.464C37.7027 25.1013 37.6174 24.7707 37.6174 24.472C37.6387 24.152 37.692 23.864 37.7774 23.608C37.82 23.416 37.9374 23.0427 38.1294 22.488C38.3427 21.912 38.5774 21.2933 38.8334 20.632C39.0894 19.9493 39.3027 19.352 39.4734 18.84C39.6654 18.3067 39.772 17.9973 39.7934 17.912C39.9427 17.4213 40.1774 16.9413 40.4974 16.472C40.8174 15.9813 41.0307 15.4693 41.1374 14.936C41.2227 14.552 41.404 14.2747 41.6814 14.104C41.9587 13.912 42.2574 13.8373 42.5774 13.88C42.8974 13.9013 43.1534 14.0613 43.3454 14.36C43.4307 14.3813 43.5054 14.4133 43.5694 14.456C43.6547 14.4773 43.7294 14.5413 43.7934 14.648C44.0067 14.8827 44.1347 15.1707 44.1774 15.512C44.2414 15.8533 44.1774 16.184 43.9854 16.504C43.7507 16.9307 43.548 17.2827 43.3774 17.56C43.228 17.8373 43.0787 18.104 42.9294 18.36C42.8014 18.616 42.6627 18.9253 42.5134 19.288C42.7267 19.2453 42.9187 19.2133 43.0894 19.192C43.26 19.1493 43.4094 19.096 43.5374 19.032C43.6867 18.9467 43.836 18.8187 43.9854 18.648C44.1134 18.52 44.3374 18.3067 44.6574 18.008C44.9774 17.688 45.3187 17.3573 45.6814 17.016C46.0654 16.6533 46.3854 16.344 46.6414 16.088C46.9187 15.8107 47.068 15.6613 47.0894 15.64C47.2387 15.448 47.3987 15.2453 47.5694 15.032C47.7614 14.7973 48.0067 14.6373 48.3054 14.552C48.6894 14.5733 48.9987 14.6267 49.2334 14.712C49.4894 14.7973 49.66 14.9467 49.7454 15.16C50.0014 15.416 50.0654 15.7787 49.9374 16.248C49.8307 16.7173 49.6387 17.0693 49.3614 17.304C48.9987 17.5813 48.54 17.944 47.9854 18.392C47.452 18.8187 46.8867 19.2773 46.2894 19.768C45.692 20.2373 45.0947 20.6853 44.4974 21.112C44.732 21.5173 44.9454 21.912 45.1374 22.296C45.3294 22.6587 45.5 22.968 45.6494 23.224C45.884 23.5653 46.0547 23.832 46.1614 24.024C46.268 24.1947 46.588 24.28 47.1214 24.28C47.5054 24.4507 47.7507 24.6213 47.8574 24.792C47.964 24.9627 48.0174 25.1333 48.0174 25.304C48.0174 25.4533 48.028 25.6133 48.0494 25.784C48.0067 25.9973 47.8894 26.232 47.6974 26.488C47.5267 26.7227 47.2707 26.8933 46.9294 27C46.588 27.128 46.172 27.096 45.6814 26.904ZM52.3209 25.816C52.2569 25.7307 52.1182 25.624 51.9049 25.496C51.6915 25.368 51.5849 25.2613 51.5849 25.176C51.5849 25.1333 51.5742 25.08 51.5529 25.016C51.5529 24.952 51.5102 24.92 51.4249 24.92C51.3609 24.856 51.3929 24.6213 51.5209 24.216C51.6702 23.8107 51.8622 23.3307 52.0969 22.776C52.3529 22.2213 52.6195 21.688 52.8969 21.176C53.1742 20.6427 53.4089 20.216 53.6009 19.896C53.7075 19.832 53.7715 19.7467 53.7929 19.64C53.8355 19.512 53.8355 19.448 53.7929 19.448C53.7929 19.448 53.8462 19.352 53.9529 19.16C54.0809 18.9467 54.1769 18.808 54.2409 18.744C54.4115 18.4453 54.5395 18.1467 54.6249 17.848C54.7102 17.528 54.7315 17.2613 54.6889 17.048C54.6035 16.9413 54.5075 16.9093 54.4009 16.952C54.2942 16.9947 54.2409 17.016 54.2409 17.016C54.1555 17.0373 54.0275 17.08 53.8569 17.144C53.7075 17.1867 53.5689 17.2507 53.4409 17.336C52.9502 17.6773 52.5875 17.848 52.3529 17.848C52.1395 17.848 51.9262 17.592 51.7129 17.08C51.6275 16.8453 51.5955 16.6213 51.6169 16.408C51.6382 16.1947 51.7235 16.024 51.8729 15.896C52.0435 15.7467 52.2569 15.5973 52.5129 15.448C52.7689 15.2773 52.9395 15.16 53.0249 15.096C53.2595 14.9467 53.5902 14.7867 54.0169 14.616C54.4435 14.4453 54.6995 14.3493 54.7849 14.328C55.3395 14.1573 55.8089 14.1573 56.1929 14.328C56.5769 14.4773 56.8649 14.776 57.0569 15.224C57.3555 15.5867 57.5049 15.9707 57.5049 16.376C57.5049 16.7813 57.3555 17.2827 57.0569 17.88L56.7369 18.36C56.6302 18.5733 56.6089 18.68 56.6729 18.68C56.7582 18.68 56.8542 18.6053 56.9609 18.456C57.0249 18.3707 57.1529 18.2427 57.3449 18.072C57.5369 17.9013 57.6649 17.816 57.7289 17.816C57.7289 17.816 57.7502 17.8053 57.7929 17.784C57.8569 17.7627 57.8889 17.6773 57.8889 17.528C57.9529 17.464 58.0169 17.4 58.0809 17.336C58.1662 17.272 58.2089 17.24 58.2089 17.24C58.2942 17.24 58.4009 17.1973 58.5289 17.112C58.6782 17.0053 58.9235 16.8133 59.2649 16.536C59.4995 16.3653 59.7129 16.28 59.9049 16.28C60.3955 16.1307 60.7902 16.2907 61.0889 16.76C61.4089 17.2293 61.5689 17.8373 61.5689 18.584L60.8969 20.312L62.0489 18.904C62.1769 18.7333 62.3049 18.584 62.4329 18.456C62.5822 18.328 62.7102 18.2213 62.8169 18.136C62.8595 17.9867 62.9235 17.9013 63.0089 17.88C63.0942 17.8587 63.1369 17.848 63.1369 17.848C63.1369 17.848 63.1582 17.848 63.2009 17.848C63.2435 17.8267 63.2649 17.784 63.2649 17.72C63.3715 17.6347 63.4889 17.56 63.6169 17.496C63.7449 17.4107 63.8302 17.3253 63.8729 17.24C64.2355 17.0907 64.6729 17.0693 65.1849 17.176C65.6969 17.2613 66.0595 17.528 66.2729 17.976C66.4222 18.232 66.5609 18.456 66.6889 18.648C66.8169 18.84 66.8809 19.128 66.8809 19.512C66.8382 19.832 66.7955 20.056 66.7529 20.184C66.7315 20.312 66.7102 20.4507 66.6889 20.6C66.6675 20.728 66.6355 20.9627 66.5929 21.304C66.5075 21.4747 66.4542 21.656 66.4329 21.848C66.4329 22.04 66.4329 22.2213 66.4329 22.392C66.4329 22.6693 66.4435 22.8613 66.4649 22.968C66.4862 23.0533 66.5715 23.096 66.7209 23.096C67.0195 23.032 67.2649 22.936 67.4569 22.808C67.6702 22.6587 67.9049 22.4667 68.1609 22.232C68.4809 21.9333 68.7582 21.8907 68.9929 22.104C69.2489 22.296 69.4089 22.52 69.4729 22.776C69.5155 22.8613 69.4729 23.0533 69.3449 23.352C69.2169 23.6507 69.0675 23.9387 68.8969 24.216C68.7262 24.4933 68.5875 24.632 68.4809 24.632C68.4169 24.632 68.2889 24.7173 68.0969 24.888C67.9049 25.0587 67.7555 25.176 67.6489 25.24C67.4995 25.3893 67.3502 25.528 67.2009 25.656C67.0729 25.784 66.9235 25.848 66.7529 25.848C66.6675 25.848 66.5609 25.88 66.4329 25.944C66.3262 25.9867 66.1982 26.008 66.0489 26.008C65.8355 26.072 65.5049 26.04 65.0569 25.912C64.6302 25.784 64.3529 25.4853 64.2249 25.016C64.1395 24.7813 64.0115 24.4827 63.8409 24.12C63.6915 23.7573 63.6595 23.3093 63.7449 22.776C63.8302 22.392 63.8835 22.04 63.9049 21.72C63.9262 21.4 63.9689 21.176 64.0329 21.048C64.0329 20.984 64.0329 20.8347 64.0329 20.6C64.0329 20.344 64.0009 20.216 63.9369 20.216C63.8515 20.216 63.6915 20.3227 63.4569 20.536C63.2222 20.7493 62.9449 21.0373 62.6249 21.4C62.3049 21.7413 61.9742 22.1147 61.6329 22.52C61.3129 22.9253 61.0249 23.3307 60.7689 23.736C60.5769 23.9707 60.4062 24.2587 60.2569 24.6C60.1075 24.9413 60.0009 25.1333 59.9369 25.176C59.7875 25.3467 59.5315 25.368 59.1689 25.24C58.8275 25.112 58.5715 24.9093 58.4009 24.632C58.3369 24.504 58.2622 24.4293 58.1769 24.408C58.0915 24.3653 58.0169 24.3013 57.9529 24.216C57.9102 24.1093 57.9102 23.9067 57.9529 23.608C58.0169 23.3093 58.1555 22.8293 58.3689 22.168C58.6035 21.4427 58.8062 20.792 58.9769 20.216C59.1689 19.6187 59.2649 19.32 59.2649 19.32C59.2649 19.2347 59.1049 19.32 58.7849 19.576C58.4649 19.8107 58.0915 20.1093 57.6649 20.472C57.4729 20.7067 57.2169 21.0053 56.8969 21.368C56.5982 21.7307 56.2462 22.1573 55.8409 22.648C55.4569 23.1387 55.0195 23.7147 54.5289 24.376C53.9102 25.2507 53.4409 25.784 53.1209 25.976C52.8222 26.168 52.5555 26.1147 52.3209 25.816ZM75.3741 26.744C74.9261 26.8293 74.5848 26.808 74.3501 26.68C74.1368 26.5307 73.9128 26.3493 73.6781 26.136C73.3368 25.9653 73.0275 25.7307 72.7501 25.432C72.4728 25.112 72.2595 24.7813 72.1101 24.44C71.9608 24.0987 71.8968 23.832 71.9181 23.64C71.9821 22.8933 72.1528 22.0827 72.4301 21.208C72.7288 20.3333 73.1021 19.48 73.5501 18.648C74.0195 17.816 74.5421 17.08 75.1181 16.44C75.7155 15.7787 76.3555 15.2987 77.0381 15C77.4648 14.8293 77.9235 14.7653 78.4141 14.808C78.9048 14.8507 79.2355 15.0533 79.4061 15.416C79.7261 16.0347 79.6515 16.4293 79.1821 16.6C79.1181 16.6 79.0435 16.632 78.9581 16.696C78.8728 16.7387 78.8301 16.8027 78.8301 16.888C78.9155 16.9307 79.1501 16.9413 79.5341 16.92C79.9181 16.8773 80.3021 16.8133 80.6861 16.728C81.0915 16.6213 81.3581 16.5147 81.4861 16.408C81.6141 16.344 81.7101 16.312 81.7741 16.312C81.8381 16.312 81.9981 16.3333 82.2541 16.376C82.6168 16.4827 82.7981 16.6107 82.7981 16.76C82.7981 16.8453 82.8301 16.984 82.8941 17.176C82.9581 17.3467 83.0328 17.432 83.1181 17.432C83.2675 17.4533 83.2995 17.6027 83.2141 17.88C83.1501 18.1573 82.9048 18.4453 82.4781 18.744C82.0728 19 81.8168 19.1707 81.7101 19.256C81.6248 19.32 81.6141 19.4693 81.6781 19.704C81.8488 20.1093 81.8381 20.6 81.6461 21.176C81.4541 21.752 81.1341 22.3493 80.6861 22.968C80.2381 23.5867 79.7048 24.1733 79.0861 24.728C78.4888 25.2613 77.8595 25.72 77.1981 26.104C76.5581 26.4667 75.9501 26.68 75.3741 26.744ZM75.4701 24.056C75.5555 24.056 75.7048 24.0133 75.9181 23.928C76.1315 23.8213 76.3021 23.736 76.4301 23.672C76.5155 23.5867 76.6221 23.4907 76.7501 23.384C76.8995 23.256 77.0168 23.1813 77.1021 23.16C77.1875 23.16 77.2408 23.128 77.2621 23.064C77.2835 22.9787 77.3581 22.8187 77.4861 22.584C77.6141 22.328 77.8701 21.9547 78.2541 21.464C78.6808 20.9947 78.9581 20.6213 79.0861 20.344C79.2141 20.0453 79.2248 19.7253 79.1181 19.384C79.0968 19.2987 79.0328 19.2453 78.9261 19.224C78.8408 19.2027 78.7235 19.1493 78.5741 19.064C78.3608 19.064 78.2115 19.1173 78.1261 19.224C78.0621 19.3093 77.9128 19.256 77.6781 19.064L77.1661 18.424L76.6221 18.968C76.2808 19.3093 75.9715 19.736 75.6941 20.248C75.4381 20.76 75.2355 21.2827 75.0861 21.816C74.9368 22.3493 74.8408 22.8187 74.7981 23.224C74.7768 23.544 74.8301 23.7573 74.9581 23.864C75.0861 23.9707 75.2568 24.0347 75.4701 24.056ZM86.4319 27.8C86.3252 27.8 86.1439 27.7467 85.8879 27.64C85.6319 27.5547 85.3865 27.4373 85.1519 27.288C84.9385 27.1387 84.8319 26.9787 84.8319 26.808C84.8319 26.808 84.8212 26.744 84.7999 26.616C84.7999 26.4667 84.7572 26.3173 84.6719 26.168C84.6719 25.9973 84.6719 25.8053 84.6719 25.592C84.6932 25.3573 84.7465 25.1227 84.8319 24.888C84.8319 24.6533 84.8639 24.3973 84.9279 24.12C84.9919 23.8213 85.0665 23.5973 85.1519 23.448C85.1519 23.2133 85.2052 22.9147 85.3119 22.552C85.4399 22.168 85.5465 21.816 85.6319 21.496C85.8665 20.792 86.0372 20.28 86.1439 19.96C86.2719 19.64 86.3572 19.4053 86.3999 19.256C86.4425 19.0853 86.4639 18.9147 86.4639 18.744C86.5279 18.5733 86.6239 18.264 86.7519 17.816C86.8799 17.368 87.0079 16.9093 87.1359 16.44C87.2852 15.9493 87.3812 15.5973 87.4239 15.384C87.5092 15.2987 87.5519 15.224 87.5519 15.16C87.5732 15.0747 87.5839 14.9893 87.5839 14.904C87.5839 14.904 87.6585 14.6587 87.8079 14.168C87.9572 13.6773 88.1492 13.112 88.3839 12.472C88.7679 11.3413 89.0239 10.52 89.1519 10.008C89.3012 9.496 89.3652 9.13333 89.3439 8.92C89.3439 8.70667 89.2905 8.49333 89.1839 8.28C89.0345 8.00267 89.0345 7.78933 89.1839 7.64C89.2692 7.55467 89.3439 7.45867 89.4079 7.352C89.4719 7.224 89.5039 7.16 89.5039 7.16C89.5039 7.11733 89.6532 7.032 89.9519 6.904C90.2719 6.75467 90.6559 6.59467 91.1039 6.424C91.5519 6.232 91.9999 6.06133 92.4479 5.912C92.8959 5.74133 93.2585 5.61333 93.5359 5.528C93.5999 5.528 93.7492 5.528 93.9839 5.528C94.2399 5.528 94.5065 5.528 94.7839 5.528C95.0825 5.528 95.3172 5.528 95.4879 5.528C96.0425 5.61333 96.6079 5.77333 97.1839 6.008C97.7812 6.24267 98.2825 6.57333 98.6879 7C98.9439 7.23467 99.2212 7.56533 99.5199 7.992C99.8399 8.41867 100.16 8.99467 100.48 9.72C100.48 9.80533 100.501 9.98667 100.544 10.264C100.608 10.52 100.64 10.776 100.64 11.032C100.64 11.672 100.48 12.3973 100.16 13.208C99.8612 14.0187 99.4132 14.84 98.8159 15.672C98.2185 16.4827 97.4932 17.24 96.6399 17.944C95.7439 18.6693 94.8159 19.16 93.8559 19.416C92.8959 19.672 92.0425 19.7253 91.2959 19.576C90.8692 19.4053 90.5812 19.1707 90.4319 18.872C90.2825 18.552 90.2185 18.2533 90.2399 17.976C90.2612 17.6987 90.3039 17.528 90.3679 17.464C90.5385 17.4213 90.7945 17.4107 91.1359 17.432C91.4772 17.432 92.0212 17.2933 92.7679 17.016C93.0025 16.9307 93.2479 16.8347 93.5039 16.728C93.7599 16.6 93.9625 16.4933 94.1119 16.408C94.5385 16.1307 94.9652 15.7787 95.3919 15.352C95.8399 14.9253 96.2985 14.3387 96.7679 13.592C96.9599 13.2933 97.0985 12.9627 97.1839 12.6C97.2692 12.2373 97.3225 11.8747 97.3439 11.512C97.3865 11.128 97.4079 10.7973 97.4079 10.52C97.5785 9.96533 97.4719 9.50667 97.0879 9.144C96.7252 8.76 96.1385 8.52533 95.3279 8.44C95.0719 8.376 94.7519 8.36533 94.3679 8.408C94.0052 8.45067 93.6639 8.52533 93.3439 8.632C93.0239 8.71733 92.7785 8.81333 92.6079 8.92C92.5225 8.92 92.4692 8.984 92.4479 9.112C92.4265 9.24 92.3732 9.38933 92.2879 9.56C92.2879 9.70933 92.2239 10.0293 92.0959 10.52C91.9679 10.9893 91.8185 11.4267 91.6479 11.832C91.4985 12.3013 91.3172 12.824 91.1039 13.4C90.8905 13.9547 90.7412 14.392 90.6559 14.712C90.5705 15.0533 90.4639 15.384 90.3359 15.704C90.2292 16.024 90.1759 16.184 90.1759 16.184C90.1759 16.2693 90.1119 16.4507 89.9839 16.728C89.8772 17.0053 89.7812 17.304 89.6959 17.624C89.6105 18.0293 89.4932 18.488 89.3439 19C89.2159 19.512 89.0665 19.9707 88.8959 20.376C88.6612 21.1653 88.4585 21.9547 88.2879 22.744C88.1172 23.512 88.1065 24.0133 88.2559 24.248C88.8959 24.2693 89.2265 24.408 89.2479 24.664C89.2905 24.8987 88.9599 25.4533 88.2559 26.328C88.0425 26.8613 87.8292 27.224 87.6159 27.416C87.4025 27.6293 87.1892 27.7467 86.9759 27.768C86.7839 27.7893 86.6025 27.8 86.4319 27.8ZM109.67 27.544C109.286 27.5867 108.945 27.5013 108.646 27.288C108.348 27.0747 108.113 26.84 107.942 26.584C107.729 26.2427 107.569 25.848 107.462 25.4C107.356 24.9307 107.302 24.4933 107.302 24.088C107.302 24.0667 107.292 24.0453 107.27 24.024C107.27 24.0027 107.27 23.992 107.27 23.992C107.27 23.9707 107.26 23.9707 107.238 23.992C106.982 24.2693 106.609 24.6107 106.118 25.016C105.649 25.4 105.148 25.7413 104.614 26.04C104.102 26.3173 103.644 26.4453 103.238 26.424C102.982 26.4027 102.726 26.2853 102.47 26.072C102.236 25.8373 102.022 25.5707 101.83 25.272C101.638 24.9733 101.51 24.7067 101.446 24.472C101.361 24.1307 101.382 23.576 101.51 22.808C101.638 22.0187 101.83 21.144 102.086 20.184C102.364 19.2027 102.684 18.264 103.046 17.368C103.409 16.4507 103.782 15.704 104.166 15.128C104.572 14.5307 104.956 14.232 105.318 14.232C105.638 14.232 105.916 14.4027 106.15 14.744C106.385 15.064 106.556 15.352 106.662 15.608C106.79 15.928 106.854 16.152 106.854 16.28C106.854 16.3867 106.737 16.568 106.502 16.824C106.289 17.0373 106.065 17.3893 105.83 17.88C105.596 18.3493 105.361 18.8827 105.126 19.48C104.892 20.056 104.678 20.6 104.486 21.112C104.316 21.624 104.177 22.0293 104.07 22.328C104.028 22.5627 103.985 22.744 103.942 22.872C103.9 23 103.868 23.1493 103.846 23.32C103.889 23.32 103.932 23.32 103.974 23.32C104.038 23.2987 104.092 23.2773 104.134 23.256C104.54 23.1067 104.956 22.808 105.382 22.36C105.83 21.912 106.268 21.3787 106.694 20.76C107.121 20.12 107.526 19.4693 107.91 18.808C108.316 18.1253 108.7 17.496 109.062 16.92C109.425 16.3227 109.745 15.8427 110.022 15.48C110.321 15.096 110.566 14.904 110.758 14.904C110.972 14.8827 111.228 14.936 111.526 15.064C111.825 15.1707 112.07 15.3307 112.262 15.544C112.476 15.736 112.561 15.96 112.518 16.216C112.433 16.7067 112.209 17.336 111.846 18.104C111.484 18.8507 111.11 19.672 110.726 20.568C110.364 21.464 110.097 22.392 109.926 23.352C109.841 23.8427 109.873 24.28 110.022 24.664C110.172 25.0267 110.396 25.3893 110.694 25.752C111.036 26.1573 111.057 26.552 110.758 26.936C110.481 27.2987 110.118 27.5013 109.67 27.544ZM115.961 26.776C115.684 26.7547 115.364 26.712 115.001 26.648C114.66 26.584 114.361 26.456 114.105 26.264C113.849 26.072 113.721 25.7947 113.721 25.432C113.721 25.2613 113.732 25.1013 113.753 24.952C113.774 24.8027 113.828 24.664 113.913 24.536C113.934 24.4933 113.956 24.4613 113.977 24.44C113.998 24.4187 114.02 24.3973 114.041 24.376C114.02 24.2693 113.998 24.1627 113.977 24.056C113.977 23.9493 113.988 23.8427 114.009 23.736C114.116 23.4587 114.18 23.2027 114.201 22.968C114.222 22.712 114.276 22.4453 114.361 22.168C114.382 22.1253 114.393 22.0827 114.393 22.04C114.393 21.9973 114.404 21.9653 114.425 21.944C114.553 21.496 114.67 21.0373 114.777 20.568C114.884 20.0987 115.044 19.6613 115.257 19.256C115.641 18.488 115.993 17.72 116.313 16.952C116.654 16.1627 116.985 15.3733 117.305 14.584C117.433 14.264 117.582 14.04 117.753 13.912C117.924 13.784 118.105 13.72 118.297 13.72C118.681 13.72 119.065 13.9013 119.449 14.264C119.833 14.6053 120.132 14.9573 120.345 15.32C120.132 15.7253 119.897 16.1413 119.641 16.568C119.385 16.9733 119.14 17.3893 118.905 17.816C118.67 18.2213 118.489 18.648 118.361 19.096C118.66 19.1173 118.948 19.1067 119.225 19.064C119.502 19.0213 119.79 19.0213 120.089 19.064C120.452 19.0853 120.814 19.064 121.177 19C121.54 18.9147 121.892 18.8933 122.233 18.936C122.297 18.6587 122.393 18.3067 122.521 17.88C122.649 17.432 122.809 16.9733 123.001 16.504C123.193 16.0347 123.406 15.6187 123.641 15.256C123.897 14.8933 124.164 14.6587 124.441 14.552C124.782 14.424 125.049 14.4347 125.241 14.584C125.433 14.7333 125.646 14.8933 125.881 15.064C126.265 15.3413 126.5 15.5653 126.585 15.736C126.692 15.9067 126.681 16.0987 126.553 16.312C126.446 16.504 126.276 16.792 126.041 17.176C125.892 17.4107 125.774 17.6773 125.689 17.976C125.625 18.2533 125.508 18.52 125.337 18.776C125.294 18.84 125.209 19.032 125.081 19.352C124.974 19.672 124.836 20.0667 124.665 20.536C124.494 20.984 124.334 21.4427 124.185 21.912C124.036 22.36 123.908 22.7653 123.801 23.128C123.694 23.4693 123.63 23.6827 123.609 23.768C123.566 24.0453 123.524 24.3227 123.481 24.6C123.438 24.8773 123.406 25.1653 123.385 25.464C123.364 25.8053 123.257 26.0507 123.065 26.2C122.873 26.328 122.638 26.392 122.361 26.392C122.084 26.392 121.806 26.3387 121.529 26.232C121.252 26.1253 121.028 26.008 120.857 25.88C120.686 25.7307 120.558 25.56 120.473 25.368C120.409 25.176 120.377 24.9733 120.377 24.76C120.377 24.376 120.452 23.992 120.601 23.608C120.75 23.224 120.868 22.9253 120.953 22.712C120.996 22.5413 121.049 22.3813 121.113 22.232C121.198 22.0613 121.262 21.8907 121.305 21.72C120.708 21.656 120.1 21.6453 119.481 21.688C118.884 21.7307 118.276 21.784 117.657 21.848C117.529 22.104 117.412 22.4027 117.305 22.744C117.22 23.0853 117.134 23.448 117.049 23.832C116.985 24.216 116.9 24.5893 116.793 24.952C116.729 25.208 116.654 25.4533 116.569 25.688C116.505 25.9013 116.42 26.104 116.313 26.296C116.206 26.488 116.089 26.648 115.961 26.776ZM127.449 26.264C127.428 25.9867 127.46 25.6027 127.545 25.112C127.652 24.6213 127.769 24.1413 127.897 23.672C128.046 23.2027 128.164 22.8613 128.249 22.648C128.441 22.0507 128.633 21.4533 128.825 20.856C129.038 20.2373 129.241 19.6293 129.433 19.032C129.646 18.4347 129.838 17.88 130.009 17.368C130.009 17.3467 130.009 17.336 130.009 17.336C130.03 17.3147 130.041 17.2933 130.041 17.272C130.041 17.2507 130.041 17.2293 130.041 17.208C130.041 17.1653 130.041 17.1227 130.041 17.08C130.041 17.0373 130.041 16.984 130.041 16.92C129.956 16.472 129.998 16.1093 130.169 15.832C130.361 15.5547 130.478 15.3627 130.521 15.256C130.713 15.0853 130.926 14.968 131.161 14.904C131.396 14.84 131.662 14.8933 131.961 15.064C132.281 14.9787 132.729 14.8933 133.305 14.808C133.902 14.7227 134.34 14.616 134.617 14.488C134.894 14.4667 135.129 14.4453 135.321 14.424C135.513 14.4027 135.705 14.392 135.897 14.392C136.089 14.3707 136.324 14.3813 136.601 14.424C136.878 14.424 137.177 14.5307 137.497 14.744C137.817 14.936 138.126 15.224 138.425 15.608C138.468 15.992 138.436 16.3013 138.329 16.536C138.222 16.7493 137.998 16.8773 137.657 16.92C137.529 16.92 137.262 16.92 136.857 16.92C136.473 16.92 136.068 16.9413 135.641 16.984C135.214 17.0053 134.862 17.0693 134.585 17.176C134.372 17.24 134.158 17.2933 133.945 17.336C133.732 17.3573 133.529 17.3787 133.337 17.4C133.166 17.4 133.006 17.432 132.857 17.496C132.729 17.7733 132.622 18.0933 132.537 18.456C132.473 18.8187 132.388 19.1387 132.281 19.416C132.174 19.7573 132.068 20.088 131.961 20.408C131.854 20.7067 131.748 21.0053 131.641 21.304C131.556 21.5813 131.47 21.848 131.385 22.104C131.257 22.5307 131.129 22.9253 131.001 23.288C130.894 23.6293 130.788 23.9493 130.681 24.248C130.596 24.5253 130.51 24.792 130.425 25.048C130.276 25.5173 130.148 25.9013 130.041 26.2C129.934 26.4773 129.849 26.7013 129.785 26.872C129.742 27.0213 129.689 27.1387 129.625 27.224C129.476 27.3093 129.284 27.3733 129.049 27.416C128.814 27.4587 128.59 27.4693 128.377 27.448C128.036 27.4053 127.801 27.2773 127.673 27.064C127.566 26.872 127.492 26.6053 127.449 26.264Z" fill="#FF5C39"/>
</svg>
