<svg width="180" height="45" viewBox="0 0 180 45" fill="none" xmlns="http://www.w3.org/2000/svg">
<path d="M8.61797 37.04C8.21797 37.2533 7.77797 37.28 7.29797 37.12C6.81797 36.9867 6.40464 36.7067 6.05797 36.28C5.73797 35.88 5.56464 35.3867 5.53797 34.8C5.64464 34.56 5.77797 34.36 5.93797 34.2C6.09797 34.04 6.28464 33.9067 6.49797 33.8C6.60464 33.7467 6.69797 33.72 6.77797 33.72C6.88464 33.6933 6.9913 33.68 7.09797 33.68C7.12464 33.68 7.25797 33.56 7.49797 33.32C7.73797 33.0533 8.00464 32.76 8.29797 32.44C8.61797 32.12 8.88464 31.8533 9.09797 31.64C9.33797 31.4 9.44464 31.2933 9.41797 31.32C9.8713 30.7867 10.2846 30.2933 10.658 29.84C11.0313 29.36 11.5513 28.6667 12.218 27.76C12.4313 27.4667 12.658 27.1333 12.898 26.76C13.1646 26.36 13.4313 25.96 13.698 25.56C13.9113 25.2133 14.1113 24.88 14.298 24.56C14.5113 24.24 14.698 23.96 14.858 23.72C14.9913 23.56 15.1113 23.4 15.218 23.24C15.3513 23.0533 15.4713 22.88 15.578 22.72L15.738 22.24C15.8713 21.8667 16.018 21.44 16.178 20.96C16.3646 20.48 16.538 20.0133 16.698 19.56C16.8846 19.1067 17.0313 18.7067 17.138 18.36C17.2713 18.0133 17.3646 17.7867 17.418 17.68C17.4446 17.6267 17.4846 17.5333 17.538 17.4C17.5913 17.24 17.6713 17.0667 17.778 16.88C17.9646 16.5067 18.1646 16.0667 18.378 15.56C18.618 15.0267 18.858 14.4933 19.098 13.96C19.338 13.4267 19.5513 12.96 19.738 12.56C19.5513 12.6133 19.3513 12.6933 19.138 12.8C18.9513 12.9067 18.7246 13.0267 18.458 13.16C17.5246 13.6133 16.738 13.9467 16.098 14.16C15.4846 14.3467 14.9913 14.4267 14.618 14.4C14.2446 14.3467 13.9646 14.2 13.778 13.96C13.3246 13.3467 13.2046 12.68 13.418 11.96C13.6313 11.24 14.0313 10.7733 14.618 10.56C14.9913 10.4267 15.3646 10.2933 15.738 10.16C16.138 10.0267 16.5246 9.89333 16.898 9.76C17.2713 9.6 17.6446 9.45333 18.018 9.32C18.418 9.18667 18.8046 9.05333 19.178 8.92C19.8713 8.70667 20.5113 8.50667 21.098 8.32C21.7113 8.13333 22.2713 7.94667 22.778 7.76C22.9913 7.76 23.2713 7.74666 23.618 7.72C23.9913 7.66667 24.3646 7.61333 24.738 7.56C25.1113 7.50667 25.4446 7.45333 25.738 7.4C26.058 7.32 26.2713 7.26667 26.378 7.24C26.938 7.21333 27.458 7.26666 27.938 7.4C28.418 7.50666 28.8313 7.68 29.178 7.92C29.3113 8 29.418 8.08 29.498 8.16C29.6046 8.24 29.7113 8.33333 29.818 8.44L30.658 9.64C30.7913 9.88 30.9113 10.1467 31.018 10.44C31.1246 10.7067 31.218 11 31.298 11.32C31.3513 11.5067 31.3646 11.76 31.338 12.08C31.338 12.3733 31.298 12.7333 31.218 13.16C31.138 13.5867 31.0313 14.12 30.898 14.76C30.7646 15.4 30.578 16.16 30.338 17.04C30.2313 17.44 30.1113 17.8667 29.978 18.32C29.8713 18.7467 29.7513 19.2133 29.618 19.72C29.538 20.0667 29.458 20.4 29.378 20.72C29.298 21.0133 29.218 21.32 29.138 21.64C29.0846 21.9333 29.018 22.24 28.938 22.56C28.858 22.88 28.7646 23.2267 28.658 23.6C28.5513 24.3733 28.3646 25.24 28.098 26.2C27.8313 27.1333 27.5246 28.0933 27.178 29.08C26.8313 30.0667 26.498 31 26.178 31.88C25.8846 32.7333 25.658 33.4667 25.498 34.08C25.3913 34.2667 25.258 34.56 25.098 34.96C24.9646 35.3333 24.7913 35.6267 24.578 35.84C24.2313 36.16 23.8846 36.36 23.538 36.44C23.218 36.5467 22.898 36.5333 22.578 36.4C22.0713 36.1867 21.698 35.92 21.458 35.6C21.218 35.3067 21.1513 34.8933 21.258 34.36C21.3113 34.28 21.4446 33.96 21.658 33.4C21.898 32.8133 22.1513 32.16 22.418 31.44C22.6846 30.6933 22.9246 30.0133 23.138 29.4C23.378 28.7867 23.5246 28.4 23.578 28.24C23.6846 27.6 23.8046 26.9867 23.938 26.4C24.098 25.8133 24.258 25.2933 24.418 24.84C24.578 24.36 24.7246 24 24.858 23.76C24.9646 23.28 25.058 22.84 25.138 22.44C25.218 22.0133 25.298 21.6133 25.378 21.24C25.4846 20.7067 25.578 20.2267 25.658 19.8C25.7646 19.3733 25.858 18.9867 25.938 18.64C26.0446 18.2667 26.138 17.9333 26.218 17.64L26.858 14.8C26.9646 14.2933 27.0713 13.8 27.178 13.32C27.2846 12.8133 27.3913 12.3067 27.498 11.8C27.5246 11.72 27.538 11.64 27.538 11.56C27.5646 11.4533 27.5913 11.36 27.618 11.28C27.298 11.28 26.8313 11.3067 26.218 11.36C25.6046 11.3867 25.0446 11.4133 24.538 11.44C24.0313 11.4667 23.7513 11.5067 23.698 11.56C23.698 11.6667 23.6313 11.92 23.498 12.32C23.3913 12.6667 23.2313 13.08 23.018 13.56C22.8313 14.0133 22.6313 14.4933 22.418 15C22.2046 15.48 22.0046 15.9333 21.818 16.36C21.6313 16.76 21.4846 17.0667 21.378 17.28C21.0313 17.92 20.7113 18.56 20.418 19.2C20.1513 19.84 19.8713 20.4933 19.578 21.16C19.4713 21.5067 19.2446 22.04 18.898 22.76C18.578 23.4533 18.1913 24.2267 17.738 25.08C17.3113 25.9333 16.8713 26.7733 16.418 27.6C15.9646 28.4 15.538 29.1067 15.138 29.72C14.738 30.3067 14.3646 30.8267 14.018 31.28C13.698 31.7333 13.3646 32.1867 13.018 32.64C12.6713 33.0667 12.2446 33.5867 11.738 34.2C11.3113 34.7867 10.778 35.36 10.138 35.92C9.49797 36.5067 8.9913 36.88 8.61797 37.04ZM32.4952 34.16C32.3885 33.9467 32.1485 33.7333 31.7752 33.52C31.4285 33.3067 31.2552 33.1467 31.2552 33.04C31.2552 32.9333 31.1885 32.7733 31.0552 32.56C30.9485 32.32 30.8418 32.1467 30.7352 32.04C30.6018 31.88 30.6418 31.4933 30.8552 30.88C31.0685 30.24 31.3885 29.4667 31.8152 28.56C32.2418 27.6533 32.7085 26.7333 33.2152 25.8C33.4285 25.5867 33.6418 25.3067 33.8552 24.96C34.0685 24.6133 34.2285 24.3867 34.3352 24.28C34.3352 24.1733 34.3752 24.08 34.4552 24C34.5352 23.8933 34.6285 23.84 34.7352 23.84L35.0552 23.2C35.1085 23.0933 35.2685 22.88 35.5352 22.56C35.8285 22.24 36.1752 21.8933 36.5752 21.52C36.9752 21.12 37.3752 20.7467 37.7752 20.4C38.2018 20.0533 38.5485 19.8 38.8152 19.64C39.3752 19.2667 39.9485 19.0933 40.5352 19.12C41.1485 19.1467 41.6685 19.3333 42.0952 19.68C42.1752 19.76 42.3485 19.92 42.6152 20.16C42.9085 20.4 43.2285 20.6667 43.5752 20.96C43.9485 21.2533 44.2685 21.52 44.5352 21.76L46.0152 23.08L45.3352 25.08C44.9885 26.1467 44.8952 27.08 45.0552 27.88C45.2152 28.68 45.4685 29.3733 45.8152 29.96C45.9485 30.2533 46.1218 30.48 46.3352 30.64C46.5752 30.8 46.8818 30.9067 47.2552 30.96C47.4685 30.9867 47.6685 31.0667 47.8552 31.2C48.0418 31.3333 48.1352 31.5467 48.1352 31.84C48.1352 32.48 48.0152 32.9467 47.7752 33.24C47.5618 33.5067 47.3218 33.6667 47.0552 33.72C46.1752 33.8267 45.3352 33.7333 44.5352 33.44C43.7352 33.1467 43.0152 32.3867 42.3752 31.16C42.2685 31 42.1218 30.7067 41.9352 30.28C41.7752 29.8267 41.6818 29.5333 41.6552 29.4C41.5485 29.5333 41.4018 29.7067 41.2152 29.92C41.0552 30.1067 40.8952 30.28 40.7352 30.44C38.8418 32.36 37.2152 33.6133 35.8552 34.2C34.5218 34.76 33.4018 34.7467 32.4952 34.16ZM34.6952 30.84C34.8818 30.8667 35.1752 30.7733 35.5752 30.56C35.9752 30.32 36.5085 29.9333 37.1752 29.4C38.0818 28.6267 38.8285 27.9867 39.4152 27.48C40.0018 26.9733 40.5752 26.32 41.1352 25.52L42.0152 24.08C41.7485 23.4667 41.5085 23.0667 41.2952 22.88C41.0818 22.6933 40.8685 22.6 40.6552 22.6C40.3085 22.6 39.8952 22.8267 39.4152 23.28C38.9352 23.7067 38.3885 24.3467 37.7752 25.2C37.1885 26.0267 36.5218 27.0667 35.7752 28.32C35.4285 28.9067 35.1618 29.48 34.9752 30.04C34.7885 30.5733 34.6952 30.84 34.6952 30.84ZM59.2267 34.88C58.7734 34.72 58.3601 34.48 57.9867 34.16C57.6134 33.84 57.2667 33.5067 56.9467 33.16C56.8401 33.0267 56.6801 32.7467 56.4667 32.32C56.2801 31.8667 56.0534 31.36 55.7867 30.8C55.5467 30.2133 55.2934 29.6267 55.0267 29.04C54.7867 28.4533 54.5601 27.9333 54.3467 27.48C54.2134 27.8267 54.0934 28.1733 53.9867 28.52C53.9067 28.84 53.8667 29.16 53.8667 29.48C53.6267 29.9067 53.4134 30.44 53.2267 31.08C53.0667 31.6933 52.9467 32.1067 52.8667 32.32C52.7867 32.6667 52.6267 33 52.3867 33.32C52.1734 33.6133 51.9201 33.8667 51.6267 34.08C51.0667 34.1067 50.6534 34.0667 50.3867 33.96C50.1467 33.8267 49.8401 33.5333 49.4667 33.08C49.2534 32.6267 49.1467 32.2133 49.1467 31.84C49.1734 31.44 49.2401 31.08 49.3467 30.76C49.4001 30.52 49.5467 30.0533 49.7867 29.36C50.0534 28.64 50.3467 27.8667 50.6667 27.04C50.9867 26.1867 51.2534 25.44 51.4667 24.8C51.7067 24.1333 51.8401 23.7467 51.8667 23.64C52.0534 23.0267 52.3467 22.4267 52.7467 21.84C53.1467 21.2267 53.4134 20.5867 53.5467 19.92C53.6534 19.44 53.8801 19.0933 54.2267 18.88C54.5734 18.64 54.9467 18.5467 55.3467 18.6C55.7467 18.6267 56.0667 18.8267 56.3067 19.2C56.4134 19.2267 56.5067 19.2667 56.5867 19.32C56.6934 19.3467 56.7867 19.4267 56.8667 19.56C57.1334 19.8533 57.2934 20.2133 57.3467 20.64C57.4267 21.0667 57.3467 21.48 57.1067 21.88C56.8134 22.4133 56.5601 22.8533 56.3467 23.2C56.1601 23.5467 55.9734 23.88 55.7867 24.2C55.6267 24.52 55.4534 24.9067 55.2667 25.36C55.5334 25.3067 55.7734 25.2667 55.9867 25.24C56.2001 25.1867 56.3867 25.12 56.5467 25.04C56.7334 24.9333 56.9201 24.7733 57.1067 24.56C57.2667 24.4 57.5467 24.1333 57.9467 23.76C58.3467 23.36 58.7734 22.9467 59.2267 22.52C59.7067 22.0667 60.1067 21.68 60.4267 21.36C60.7734 21.0133 60.9601 20.8267 60.9867 20.8C61.1734 20.56 61.3734 20.3067 61.5867 20.04C61.8267 19.7467 62.1334 19.5467 62.5067 19.44C62.9867 19.4667 63.3734 19.5333 63.6667 19.64C63.9867 19.7467 64.2001 19.9333 64.3067 20.2C64.6267 20.52 64.7067 20.9733 64.5467 21.56C64.4134 22.1467 64.1734 22.5867 63.8267 22.88C63.3734 23.2267 62.8001 23.68 62.1067 24.24C61.4401 24.7733 60.7334 25.3467 59.9867 25.96C59.2401 26.5467 58.4934 27.1067 57.7467 27.64C58.0401 28.1467 58.3067 28.64 58.5467 29.12C58.7867 29.5733 59.0001 29.96 59.1867 30.28C59.4801 30.7067 59.6934 31.04 59.8267 31.28C59.9601 31.4933 60.3601 31.6 61.0267 31.6C61.5067 31.8133 61.8134 32.0267 61.9467 32.24C62.0801 32.4533 62.1467 32.6667 62.1467 32.88C62.1467 33.0667 62.1601 33.2667 62.1867 33.48C62.1334 33.7467 61.9867 34.04 61.7467 34.36C61.5334 34.6533 61.2134 34.8667 60.7867 35C60.3601 35.16 59.8401 35.12 59.2267 34.88ZM67.5261 33.52C67.4461 33.4133 67.2728 33.28 67.0061 33.12C66.7394 32.96 66.6061 32.8267 66.6061 32.72C66.6061 32.6667 66.5928 32.6 66.5661 32.52C66.5661 32.44 66.5128 32.4 66.4061 32.4C66.3261 32.32 66.3661 32.0267 66.5261 31.52C66.7128 31.0133 66.9528 30.4133 67.2461 29.72C67.5661 29.0267 67.8994 28.36 68.2461 27.72C68.5928 27.0533 68.8861 26.52 69.1261 26.12C69.2594 26.04 69.3394 25.9333 69.3661 25.8C69.4194 25.64 69.4194 25.56 69.3661 25.56C69.3661 25.56 69.4328 25.44 69.5661 25.2C69.7261 24.9333 69.8461 24.76 69.9261 24.68C70.1394 24.3067 70.2994 23.9333 70.4061 23.56C70.5128 23.16 70.5394 22.8267 70.4861 22.56C70.3794 22.4267 70.2594 22.3867 70.1261 22.44C69.9928 22.4933 69.9261 22.52 69.9261 22.52C69.8194 22.5467 69.6594 22.6 69.4461 22.68C69.2594 22.7333 69.0861 22.8133 68.9261 22.92C68.3128 23.3467 67.8594 23.56 67.5661 23.56C67.2994 23.56 67.0328 23.24 66.7661 22.6C66.6594 22.3067 66.6194 22.0267 66.6461 21.76C66.6728 21.4933 66.7794 21.28 66.9661 21.12C67.1794 20.9333 67.4461 20.7467 67.7661 20.56C68.0861 20.3467 68.2994 20.2 68.4061 20.12C68.6994 19.9333 69.1128 19.7333 69.6461 19.52C70.1794 19.3067 70.4994 19.1867 70.6061 19.16C71.2994 18.9467 71.8861 18.9467 72.3661 19.16C72.8461 19.3467 73.2061 19.72 73.4461 20.28C73.8194 20.7333 74.0061 21.2133 74.0061 21.72C74.0061 22.2267 73.8194 22.8533 73.4461 23.6L73.0461 24.2C72.9128 24.4667 72.8861 24.6 72.9661 24.6C73.0728 24.6 73.1928 24.5067 73.3261 24.32C73.4061 24.2133 73.5661 24.0533 73.8061 23.84C74.0461 23.6267 74.2061 23.52 74.2861 23.52C74.2861 23.52 74.3128 23.5067 74.3661 23.48C74.4461 23.4533 74.4861 23.3467 74.4861 23.16C74.5661 23.08 74.6461 23 74.7261 22.92C74.8328 22.84 74.8861 22.8 74.8861 22.8C74.9928 22.8 75.1261 22.7467 75.2861 22.64C75.4728 22.5067 75.7794 22.2667 76.2061 21.92C76.4994 21.7067 76.7661 21.6 77.0061 21.6C77.6194 21.4133 78.1128 21.6133 78.4861 22.2C78.8861 22.7867 79.0861 23.5467 79.0861 24.48L78.2461 26.64L79.6861 24.88C79.8461 24.6667 80.0061 24.48 80.1661 24.32C80.3528 24.16 80.5128 24.0267 80.6461 23.92C80.6994 23.7333 80.7794 23.6267 80.8861 23.6C80.9928 23.5733 81.0461 23.56 81.0461 23.56C81.0461 23.56 81.0728 23.56 81.1261 23.56C81.1794 23.5333 81.2061 23.48 81.2061 23.4C81.3394 23.2933 81.4861 23.2 81.6461 23.12C81.8061 23.0133 81.9128 22.9067 81.9661 22.8C82.4194 22.6133 82.9661 22.5867 83.6061 22.72C84.2461 22.8267 84.6994 23.16 84.9661 23.72C85.1528 24.04 85.3261 24.32 85.4861 24.56C85.6461 24.8 85.7261 25.16 85.7261 25.64C85.6728 26.04 85.6194 26.32 85.5661 26.48C85.5394 26.64 85.5128 26.8133 85.4861 27C85.4594 27.16 85.4194 27.4533 85.3661 27.88C85.2594 28.0933 85.1928 28.32 85.1661 28.56C85.1661 28.8 85.1661 29.0267 85.1661 29.24C85.1661 29.5867 85.1794 29.8267 85.2061 29.96C85.2328 30.0667 85.3394 30.12 85.5261 30.12C85.8994 30.04 86.2061 29.92 86.4461 29.76C86.7128 29.5733 87.0061 29.3333 87.3261 29.04C87.7261 28.6667 88.0728 28.6133 88.3661 28.88C88.6861 29.12 88.8861 29.4 88.9661 29.72C89.0194 29.8267 88.9661 30.0667 88.8061 30.44C88.6461 30.8133 88.4594 31.1733 88.2461 31.52C88.0328 31.8667 87.8594 32.04 87.7261 32.04C87.6461 32.04 87.4861 32.1467 87.2461 32.36C87.0061 32.5733 86.8194 32.72 86.6861 32.8C86.4994 32.9867 86.3128 33.16 86.1261 33.32C85.9661 33.48 85.7794 33.56 85.5661 33.56C85.4594 33.56 85.3261 33.6 85.1661 33.68C85.0328 33.7333 84.8728 33.76 84.6861 33.76C84.4194 33.84 84.0061 33.8 83.4461 33.64C82.9128 33.48 82.5661 33.1067 82.4061 32.52C82.2994 32.2267 82.1394 31.8533 81.9261 31.4C81.7394 30.9467 81.6994 30.3867 81.8061 29.72C81.9128 29.24 81.9794 28.8 82.0061 28.4C82.0328 28 82.0861 27.72 82.1661 27.56C82.1661 27.48 82.1661 27.2933 82.1661 27C82.1661 26.68 82.1261 26.52 82.0461 26.52C81.9394 26.52 81.7394 26.6533 81.4461 26.92C81.1528 27.1867 80.8061 27.5467 80.4061 28C80.0061 28.4267 79.5928 28.8933 79.1661 29.4C78.7661 29.9067 78.4061 30.4133 78.0861 30.92C77.8461 31.2133 77.6328 31.5733 77.4461 32C77.2594 32.4267 77.1261 32.6667 77.0461 32.72C76.8594 32.9333 76.5394 32.96 76.0861 32.8C75.6594 32.64 75.3394 32.3867 75.1261 32.04C75.0461 31.88 74.9528 31.7867 74.8461 31.76C74.7394 31.7067 74.6461 31.6267 74.5661 31.52C74.5128 31.3867 74.5128 31.1333 74.5661 30.76C74.6461 30.3867 74.8194 29.7867 75.0861 28.96C75.3794 28.0533 75.6328 27.24 75.8461 26.52C76.0861 25.7733 76.2061 25.4 76.2061 25.4C76.2061 25.2933 76.0061 25.4 75.6061 25.72C75.2061 26.0133 74.7394 26.3867 74.2061 26.84C73.9661 27.1333 73.6461 27.5067 73.2461 27.96C72.8728 28.4133 72.4328 28.9467 71.9261 29.56C71.4461 30.1733 70.8994 30.8933 70.2861 31.72C69.5128 32.8133 68.9261 33.48 68.5261 33.72C68.1528 33.96 67.8194 33.8933 67.5261 33.52ZM96.3427 34.68C95.7827 34.7867 95.356 34.76 95.0627 34.6C94.796 34.4133 94.516 34.1867 94.2227 33.92C93.796 33.7067 93.4093 33.4133 93.0627 33.04C92.716 32.64 92.4493 32.2267 92.2627 31.8C92.076 31.3733 91.996 31.04 92.0227 30.8C92.1027 29.8667 92.316 28.8533 92.6627 27.76C93.036 26.6667 93.5027 25.6 94.0627 24.56C94.6493 23.52 95.3027 22.6 96.0227 21.8C96.7693 20.9733 97.5693 20.3733 98.4227 20C98.956 19.7867 99.5293 19.7067 100.143 19.76C100.756 19.8133 101.169 20.0667 101.383 20.52C101.783 21.2933 101.689 21.7867 101.103 22C101.023 22 100.929 22.04 100.823 22.12C100.716 22.1733 100.663 22.2533 100.663 22.36C100.769 22.4133 101.063 22.4267 101.543 22.4C102.023 22.3467 102.503 22.2667 102.983 22.16C103.489 22.0267 103.823 21.8933 103.983 21.76C104.143 21.68 104.263 21.64 104.343 21.64C104.423 21.64 104.623 21.6667 104.943 21.72C105.396 21.8533 105.623 22.0133 105.623 22.2C105.623 22.3067 105.663 22.48 105.743 22.72C105.823 22.9333 105.916 23.04 106.023 23.04C106.209 23.0667 106.249 23.2533 106.143 23.6C106.063 23.9467 105.756 24.3067 105.223 24.68C104.716 25 104.396 25.2133 104.263 25.32C104.156 25.4 104.143 25.5867 104.223 25.88C104.436 26.3867 104.423 27 104.183 27.72C103.943 28.44 103.543 29.1867 102.983 29.96C102.423 30.7333 101.756 31.4667 100.983 32.16C100.236 32.8267 99.4493 33.4 98.6227 33.88C97.8227 34.3333 97.0627 34.6 96.3427 34.68ZM96.4627 31.32C96.5693 31.32 96.756 31.2667 97.0227 31.16C97.2893 31.0267 97.5027 30.92 97.6627 30.84C97.7693 30.7333 97.9027 30.6133 98.0627 30.48C98.2493 30.32 98.396 30.2267 98.5027 30.2C98.6093 30.2 98.676 30.16 98.7027 30.08C98.7293 29.9733 98.8227 29.7733 98.9827 29.48C99.1427 29.16 99.4627 28.6933 99.9427 28.08C100.476 27.4933 100.823 27.0267 100.983 26.68C101.143 26.3067 101.156 25.9067 101.023 25.48C100.996 25.3733 100.916 25.3067 100.783 25.28C100.676 25.2533 100.529 25.1867 100.343 25.08C100.076 25.08 99.8893 25.1467 99.7827 25.28C99.7027 25.3867 99.516 25.32 99.2227 25.08L98.5827 24.28L97.9027 24.96C97.476 25.3867 97.0893 25.92 96.7427 26.56C96.4227 27.2 96.1693 27.8533 95.9827 28.52C95.796 29.1867 95.676 29.7733 95.6227 30.28C95.596 30.68 95.6627 30.9467 95.8227 31.08C95.9827 31.2133 96.196 31.2933 96.4627 31.32ZM110.165 36C110.032 36 109.805 35.9333 109.485 35.8C109.165 35.6933 108.858 35.5467 108.565 35.36C108.298 35.1733 108.165 34.9733 108.165 34.76C108.165 34.76 108.152 34.68 108.125 34.52C108.125 34.3333 108.072 34.1467 107.965 33.96C107.965 33.7467 107.965 33.5067 107.965 33.24C107.992 32.9467 108.058 32.6533 108.165 32.36C108.165 32.0667 108.205 31.7467 108.285 31.4C108.365 31.0267 108.458 30.7467 108.565 30.56C108.565 30.2667 108.632 29.8933 108.765 29.44C108.925 28.96 109.058 28.52 109.165 28.12C109.458 27.24 109.672 26.6 109.805 26.2C109.965 25.8 110.072 25.5067 110.125 25.32C110.178 25.1067 110.205 24.8933 110.205 24.68C110.285 24.4667 110.405 24.08 110.565 23.52C110.725 22.96 110.885 22.3867 111.045 21.8C111.232 21.1867 111.352 20.7467 111.405 20.48C111.512 20.3733 111.565 20.28 111.565 20.2C111.592 20.0933 111.605 19.9867 111.605 19.88C111.605 19.88 111.698 19.5733 111.885 18.96C112.072 18.3467 112.312 17.64 112.605 16.84C113.085 15.4267 113.405 14.4 113.565 13.76C113.752 13.12 113.832 12.6667 113.805 12.4C113.805 12.1333 113.738 11.8667 113.605 11.6C113.418 11.2533 113.418 10.9867 113.605 10.8C113.712 10.6933 113.805 10.5733 113.885 10.44C113.965 10.28 114.005 10.2 114.005 10.2C114.005 10.1467 114.192 10.04 114.565 9.88C114.965 9.69333 115.445 9.49333 116.005 9.28C116.565 9.04 117.125 8.82667 117.685 8.64C118.245 8.42666 118.698 8.26667 119.045 8.16C119.125 8.16 119.312 8.16 119.605 8.16C119.925 8.16 120.258 8.16 120.605 8.16C120.978 8.16 121.272 8.16 121.485 8.16C122.178 8.26667 122.885 8.46666 123.605 8.76C124.352 9.05333 124.978 9.46667 125.485 10C125.805 10.2933 126.152 10.7067 126.525 11.24C126.925 11.7733 127.325 12.4933 127.725 13.4C127.725 13.5067 127.752 13.7333 127.805 14.08C127.885 14.4 127.925 14.72 127.925 15.04C127.925 15.84 127.725 16.7467 127.325 17.76C126.952 18.7733 126.392 19.8 125.645 20.84C124.898 21.8533 123.992 22.8 122.925 23.68C121.805 24.5867 120.645 25.2 119.445 25.52C118.245 25.84 117.178 25.9067 116.245 25.72C115.712 25.5067 115.352 25.2133 115.165 24.84C114.978 24.44 114.898 24.0667 114.925 23.72C114.952 23.3733 115.005 23.16 115.085 23.08C115.298 23.0267 115.618 23.0133 116.045 23.04C116.472 23.04 117.152 22.8667 118.085 22.52C118.378 22.4133 118.685 22.2933 119.005 22.16C119.325 22 119.578 21.8667 119.765 21.76C120.298 21.4133 120.832 20.9733 121.365 20.44C121.925 19.9067 122.498 19.1733 123.085 18.24C123.325 17.8667 123.498 17.4533 123.605 17C123.712 16.5467 123.778 16.0933 123.805 15.64C123.858 15.16 123.885 14.7467 123.885 14.4C124.098 13.7067 123.965 13.1333 123.485 12.68C123.032 12.2 122.298 11.9067 121.285 11.8C120.965 11.72 120.565 11.7067 120.085 11.76C119.632 11.8133 119.205 11.9067 118.805 12.04C118.405 12.1467 118.098 12.2667 117.885 12.4C117.778 12.4 117.712 12.48 117.685 12.64C117.658 12.8 117.592 12.9867 117.485 13.2C117.485 13.3867 117.405 13.7867 117.245 14.4C117.085 14.9867 116.898 15.5333 116.685 16.04C116.498 16.6267 116.272 17.28 116.005 18C115.738 18.6933 115.552 19.24 115.445 19.64C115.338 20.0667 115.205 20.48 115.045 20.88C114.912 21.28 114.845 21.48 114.845 21.48C114.845 21.5867 114.765 21.8133 114.605 22.16C114.472 22.5067 114.352 22.88 114.245 23.28C114.138 23.7867 113.992 24.36 113.805 25C113.645 25.64 113.458 26.2133 113.245 26.72C112.952 27.7067 112.698 28.6933 112.485 29.68C112.272 30.64 112.258 31.2667 112.445 31.56C113.245 31.5867 113.658 31.76 113.685 32.08C113.738 32.3733 113.325 33.0667 112.445 34.16C112.178 34.8267 111.912 35.28 111.645 35.52C111.378 35.7867 111.112 35.9333 110.845 35.96C110.605 35.9867 110.378 36 110.165 36ZM139.213 35.68C138.733 35.7333 138.306 35.6267 137.933 35.36C137.56 35.0933 137.266 34.8 137.053 34.48C136.786 34.0533 136.586 33.56 136.453 33C136.32 32.4133 136.253 31.8667 136.253 31.36C136.253 31.3333 136.24 31.3067 136.213 31.28C136.213 31.2533 136.213 31.24 136.213 31.24C136.213 31.2133 136.2 31.2133 136.173 31.24C135.853 31.5867 135.386 32.0133 134.773 32.52C134.186 33 133.56 33.4267 132.893 33.8C132.253 34.1467 131.68 34.3067 131.173 34.28C130.853 34.2533 130.533 34.1067 130.213 33.84C129.92 33.5467 129.653 33.2133 129.413 32.84C129.173 32.4667 129.013 32.1333 128.933 31.84C128.826 31.4133 128.853 30.72 129.013 29.76C129.173 28.7733 129.413 27.68 129.733 26.48C130.08 25.2533 130.48 24.08 130.933 22.96C131.386 21.8133 131.853 20.88 132.333 20.16C132.84 19.4133 133.32 19.04 133.773 19.04C134.173 19.04 134.52 19.2533 134.813 19.68C135.106 20.08 135.32 20.44 135.453 20.76C135.613 21.16 135.693 21.44 135.693 21.6C135.693 21.7333 135.546 21.96 135.253 22.28C134.986 22.5467 134.706 22.9867 134.413 23.6C134.12 24.1867 133.826 24.8533 133.533 25.6C133.24 26.32 132.973 27 132.733 27.64C132.52 28.28 132.346 28.7867 132.213 29.16C132.16 29.4533 132.106 29.68 132.053 29.84C132 30 131.96 30.1867 131.933 30.4C131.986 30.4 132.04 30.4 132.093 30.4C132.173 30.3733 132.24 30.3467 132.293 30.32C132.8 30.1333 133.32 29.76 133.853 29.2C134.413 28.64 134.96 27.9733 135.493 27.2C136.026 26.4 136.533 25.5867 137.013 24.76C137.52 23.9067 138 23.12 138.453 22.4C138.906 21.6533 139.306 21.0533 139.653 20.6C140.026 20.12 140.333 19.88 140.573 19.88C140.84 19.8533 141.16 19.92 141.533 20.08C141.906 20.2133 142.213 20.4133 142.453 20.68C142.72 20.92 142.826 21.2 142.773 21.52C142.666 22.1333 142.386 22.92 141.933 23.88C141.48 24.8133 141.013 25.84 140.533 26.96C140.08 28.08 139.746 29.24 139.533 30.44C139.426 31.0533 139.466 31.6 139.653 32.08C139.84 32.5333 140.12 32.9867 140.493 33.44C140.92 33.9467 140.946 34.44 140.573 34.92C140.226 35.3733 139.773 35.6267 139.213 35.68ZM147.076 34.72C146.729 34.6933 146.329 34.64 145.876 34.56C145.449 34.48 145.076 34.32 144.756 34.08C144.436 33.84 144.276 33.4933 144.276 33.04C144.276 32.8267 144.289 32.6267 144.316 32.44C144.343 32.2533 144.409 32.08 144.516 31.92C144.543 31.8667 144.569 31.8267 144.596 31.8C144.623 31.7733 144.649 31.7467 144.676 31.72C144.649 31.5867 144.623 31.4533 144.596 31.32C144.596 31.1867 144.609 31.0533 144.636 30.92C144.769 30.5733 144.849 30.2533 144.876 29.96C144.903 29.64 144.969 29.3067 145.076 28.96C145.103 28.9067 145.116 28.8533 145.116 28.8C145.116 28.7467 145.129 28.7067 145.156 28.68C145.316 28.12 145.463 27.5467 145.596 26.96C145.729 26.3733 145.929 25.8267 146.196 25.32C146.676 24.36 147.116 23.4 147.516 22.44C147.943 21.4533 148.356 20.4667 148.756 19.48C148.916 19.08 149.103 18.8 149.316 18.64C149.529 18.48 149.756 18.4 149.996 18.4C150.476 18.4 150.956 18.6267 151.436 19.08C151.916 19.5067 152.289 19.9467 152.556 20.4C152.289 20.9067 151.996 21.4267 151.676 21.96C151.356 22.4667 151.049 22.9867 150.756 23.52C150.463 24.0267 150.236 24.56 150.076 25.12C150.449 25.1467 150.809 25.1333 151.156 25.08C151.503 25.0267 151.863 25.0267 152.236 25.08C152.689 25.1067 153.143 25.08 153.596 25C154.049 24.8933 154.489 24.8667 154.916 24.92C154.996 24.5733 155.116 24.1333 155.276 23.6C155.436 23.04 155.636 22.4667 155.876 21.88C156.116 21.2933 156.383 20.7733 156.676 20.32C156.996 19.8667 157.329 19.5733 157.676 19.44C158.103 19.28 158.436 19.2933 158.676 19.48C158.916 19.6667 159.183 19.8667 159.476 20.08C159.956 20.4267 160.249 20.7067 160.356 20.92C160.489 21.1333 160.476 21.3733 160.316 21.64C160.183 21.88 159.969 22.24 159.676 22.72C159.489 23.0133 159.343 23.3467 159.236 23.72C159.156 24.0667 159.009 24.4 158.796 24.72C158.743 24.8 158.636 25.04 158.476 25.44C158.343 25.84 158.169 26.3333 157.956 26.92C157.743 27.48 157.543 28.0533 157.356 28.64C157.169 29.2 157.009 29.7067 156.876 30.16C156.743 30.5867 156.663 30.8533 156.636 30.96C156.583 31.3067 156.529 31.6533 156.476 32C156.423 32.3467 156.383 32.7067 156.356 33.08C156.329 33.5067 156.196 33.8133 155.956 34C155.716 34.16 155.423 34.24 155.076 34.24C154.729 34.24 154.383 34.1733 154.036 34.04C153.689 33.9067 153.409 33.76 153.196 33.6C152.983 33.4133 152.823 33.2 152.716 32.96C152.636 32.72 152.596 32.4667 152.596 32.2C152.596 31.72 152.689 31.24 152.876 30.76C153.063 30.28 153.209 29.9067 153.316 29.64C153.369 29.4267 153.436 29.2267 153.516 29.04C153.623 28.8267 153.703 28.6133 153.756 28.4C153.009 28.32 152.249 28.3067 151.476 28.36C150.729 28.4133 149.969 28.48 149.196 28.56C149.036 28.88 148.889 29.2533 148.756 29.68C148.649 30.1067 148.543 30.56 148.436 31.04C148.356 31.52 148.249 31.9867 148.116 32.44C148.036 32.76 147.943 33.0667 147.836 33.36C147.756 33.6267 147.649 33.88 147.516 34.12C147.383 34.36 147.236 34.56 147.076 34.72ZM161.436 34.08C161.41 33.7333 161.45 33.2533 161.556 32.64C161.69 32.0267 161.836 31.4267 161.996 30.84C162.183 30.2533 162.33 29.8267 162.436 29.56C162.676 28.8133 162.916 28.0667 163.156 27.32C163.423 26.5467 163.676 25.7867 163.916 25.04C164.183 24.2933 164.423 23.6 164.636 22.96C164.636 22.9333 164.636 22.92 164.636 22.92C164.663 22.8933 164.676 22.8667 164.676 22.84C164.676 22.8133 164.676 22.7867 164.676 22.76C164.676 22.7067 164.676 22.6533 164.676 22.6C164.676 22.5467 164.676 22.48 164.676 22.4C164.57 21.84 164.623 21.3867 164.836 21.04C165.076 20.6933 165.223 20.4533 165.276 20.32C165.516 20.1067 165.783 19.96 166.076 19.88C166.37 19.8 166.703 19.8667 167.076 20.08C167.476 19.9733 168.036 19.8667 168.756 19.76C169.503 19.6533 170.05 19.52 170.396 19.36C170.743 19.3333 171.036 19.3067 171.276 19.28C171.516 19.2533 171.756 19.24 171.996 19.24C172.236 19.2133 172.53 19.2267 172.876 19.28C173.223 19.28 173.596 19.4133 173.996 19.68C174.396 19.92 174.783 20.28 175.156 20.76C175.21 21.24 175.17 21.6267 175.036 21.92C174.903 22.1867 174.623 22.3467 174.196 22.4C174.036 22.4 173.703 22.4 173.196 22.4C172.716 22.4 172.21 22.4267 171.676 22.48C171.143 22.5067 170.703 22.5867 170.356 22.72C170.09 22.8 169.823 22.8667 169.556 22.92C169.29 22.9467 169.036 22.9733 168.796 23C168.583 23 168.383 23.04 168.196 23.12C168.036 23.4667 167.903 23.8667 167.796 24.32C167.716 24.7733 167.61 25.1733 167.476 25.52C167.343 25.9467 167.21 26.36 167.076 26.76C166.943 27.1333 166.81 27.5067 166.676 27.88C166.57 28.2267 166.463 28.56 166.356 28.88C166.196 29.4133 166.036 29.9067 165.876 30.36C165.743 30.7867 165.61 31.1867 165.476 31.56C165.37 31.9067 165.263 32.24 165.156 32.56C164.97 33.1467 164.81 33.6267 164.676 34C164.543 34.3467 164.436 34.6267 164.356 34.84C164.303 35.0267 164.236 35.1733 164.156 35.28C163.97 35.3867 163.73 35.4667 163.436 35.52C163.143 35.5733 162.863 35.5867 162.596 35.56C162.17 35.5067 161.876 35.3467 161.716 35.08C161.583 34.84 161.49 34.5067 161.436 34.08Z" fill="white"/>
</svg>
