<svg width="139" height="27" viewBox="0 0 139 27" fill="none" xmlns="http://www.w3.org/2000/svg">
<g clip-path="url(#clip0_2001_1717)">
<path d="M4.19438 25.632C3.87438 25.8027 3.52238 25.824 3.13838 25.696C2.75438 25.5893 2.42371 25.3653 2.14638 25.024C1.89038 24.704 1.75171 24.3093 1.73038 23.84C1.81571 23.648 1.92238 23.488 2.05038 23.36C2.17838 23.232 2.32771 23.1253 2.49838 23.04C2.58371 22.9973 2.65838 22.976 2.72238 22.976C2.80771 22.9547 2.89304 22.944 2.97838 22.944C2.99971 22.944 3.10638 22.848 3.29838 22.656C3.49038 22.4427 3.70371 22.208 3.93837 21.952C4.19438 21.696 4.40771 21.4827 4.57838 21.312C4.77038 21.12 4.85571 21.0347 4.83438 21.056C5.19704 20.6293 5.52771 20.2347 5.82638 19.872C6.12504 19.488 6.54104 18.9333 7.07438 18.208C7.24504 17.9733 7.42638 17.7067 7.61838 17.408C7.83171 17.088 8.04504 16.768 8.25838 16.448C8.42904 16.1707 8.58904 15.904 8.73838 15.648C8.90904 15.392 9.05838 15.168 9.18638 14.976C9.29304 14.848 9.38904 14.72 9.47438 14.592C9.58104 14.4427 9.67704 14.304 9.76238 14.176L9.89038 13.792C9.99704 13.4933 10.1144 13.152 10.2424 12.768C10.3917 12.384 10.5304 12.0107 10.6584 11.648C10.8077 11.2853 10.925 10.9653 11.0104 10.688C11.117 10.4107 11.1917 10.2293 11.2344 10.144C11.2557 10.1013 11.2877 10.0267 11.3304 9.92C11.373 9.792 11.437 9.65333 11.5224 9.504C11.6717 9.20533 11.8317 8.85333 12.0024 8.448C12.1944 8.02133 12.3864 7.59467 12.5784 7.168C12.7704 6.74133 12.941 6.368 13.0904 6.048C12.941 6.09067 12.781 6.15467 12.6104 6.24C12.461 6.32533 12.2797 6.42133 12.0664 6.528C11.3197 6.89067 10.6904 7.15733 10.1784 7.328C9.68771 7.47733 9.29304 7.54133 8.99438 7.52C8.69571 7.47733 8.47171 7.36 8.32238 7.168C7.95971 6.67733 7.86371 6.144 8.03438 5.568C8.20504 4.992 8.52504 4.61867 8.99438 4.448C9.29304 4.34133 9.59171 4.23466 9.89038 4.128C10.2104 4.02133 10.5197 3.91467 10.8184 3.808C11.117 3.68 11.4157 3.56267 11.7144 3.456C12.0344 3.34933 12.3437 3.24267 12.6424 3.136C13.197 2.96533 13.709 2.80533 14.1784 2.656C14.669 2.50667 15.117 2.35733 15.5224 2.208C15.693 2.208 15.917 2.19733 16.1944 2.176C16.493 2.13333 16.7917 2.09067 17.0904 2.048C17.389 2.00533 17.6557 1.96267 17.8904 1.92C18.1464 1.856 18.317 1.81333 18.4024 1.792C18.8504 1.77067 19.2664 1.81333 19.6504 1.92C20.0344 2.00533 20.365 2.144 20.6424 2.336C20.749 2.4 20.8344 2.464 20.8984 2.528C20.9837 2.592 21.069 2.66667 21.1544 2.752L21.8264 3.712C21.933 3.904 22.029 4.11733 22.1144 4.352C22.1997 4.56533 22.2744 4.8 22.3384 5.056C22.381 5.20533 22.3917 5.408 22.3704 5.664C22.3704 5.89867 22.3384 6.18667 22.2744 6.528C22.2104 6.86933 22.125 7.296 22.0184 7.808C21.9117 8.32 21.7624 8.928 21.5704 9.632C21.485 9.952 21.389 10.2933 21.2824 10.656C21.197 10.9973 21.101 11.3707 20.9944 11.776C20.9304 12.0533 20.8664 12.32 20.8024 12.576C20.7384 12.8107 20.6744 13.056 20.6104 13.312C20.5677 13.5467 20.5144 13.792 20.4504 14.048C20.3864 14.304 20.3117 14.5813 20.2264 14.88C20.141 15.4987 19.9917 16.192 19.7784 16.96C19.565 17.7067 19.3197 18.4747 19.0424 19.264C18.765 20.0533 18.4984 20.8 18.2424 21.504C18.0077 22.1867 17.8264 22.7733 17.6984 23.264C17.613 23.4133 17.5064 23.648 17.3784 23.968C17.2717 24.2667 17.133 24.5013 16.9624 24.672C16.685 24.928 16.4077 25.088 16.1304 25.152C15.8744 25.2373 15.6184 25.2267 15.3624 25.12C14.957 24.9493 14.6584 24.736 14.4664 24.48C14.2744 24.2453 14.221 23.9147 14.3064 23.488C14.349 23.424 14.4557 23.168 14.6264 22.72C14.8184 22.2507 15.021 21.728 15.2344 21.152C15.4477 20.5547 15.6397 20.0107 15.8104 19.52C16.0024 19.0293 16.1197 18.72 16.1624 18.592C16.2477 18.08 16.3437 17.5893 16.4504 17.12C16.5784 16.6507 16.7064 16.2347 16.8344 15.872C16.9624 15.488 17.0797 15.2 17.1864 15.008C17.2717 14.624 17.3464 14.272 17.4104 13.952C17.4744 13.6107 17.5384 13.2907 17.6024 12.992C17.6877 12.5653 17.7624 12.1813 17.8264 11.84C17.9117 11.4987 17.9864 11.1893 18.0504 10.912C18.1357 10.6133 18.2104 10.3467 18.2744 10.112L18.7864 7.84C18.8717 7.43467 18.957 7.04 19.0424 6.656C19.1277 6.25067 19.213 5.84533 19.2984 5.44C19.3197 5.376 19.3304 5.312 19.3304 5.248C19.3517 5.16267 19.373 5.088 19.3944 5.024C19.1384 5.024 18.765 5.04533 18.2744 5.088C17.7837 5.10933 17.3357 5.13067 16.9304 5.152C16.525 5.17333 16.301 5.20533 16.2584 5.248C16.2584 5.33333 16.205 5.536 16.0984 5.856C16.013 6.13333 15.885 6.464 15.7144 6.848C15.565 7.21067 15.405 7.59467 15.2344 8C15.0637 8.384 14.9037 8.74667 14.7544 9.088C14.605 9.408 14.4877 9.65333 14.4024 9.824C14.125 10.336 13.869 10.848 13.6344 11.36C13.421 11.872 13.197 12.3947 12.9624 12.928C12.877 13.2053 12.6957 13.632 12.4184 14.208C12.1624 14.7627 11.853 15.3813 11.4904 16.064C11.149 16.7467 10.797 17.4187 10.4344 18.08C10.0717 18.72 9.73038 19.2853 9.41038 19.776C9.09038 20.2453 8.79171 20.6613 8.51438 21.024C8.25838 21.3867 7.99171 21.7493 7.71438 22.112C7.43704 22.4533 7.09571 22.8693 6.69038 23.36C6.34904 23.8293 5.92238 24.288 5.41038 24.736C4.89838 25.2053 4.49304 25.504 4.19438 25.632ZM23.2961 23.328C23.2108 23.1573 23.0188 22.9867 22.7201 22.816C22.4428 22.6453 22.3041 22.5173 22.3041 22.432C22.3041 22.3467 22.2508 22.2187 22.1441 22.048C22.0588 21.856 21.9735 21.7173 21.8881 21.632C21.7815 21.504 21.8135 21.1947 21.9841 20.704C22.1548 20.192 22.4108 19.5733 22.7521 18.848C23.0935 18.1227 23.4668 17.3867 23.8721 16.64C24.0428 16.4693 24.2135 16.2453 24.3841 15.968C24.5548 15.6907 24.6828 15.5093 24.7681 15.424C24.7681 15.3387 24.8001 15.264 24.8641 15.2C24.9281 15.1147 25.0028 15.072 25.0881 15.072L25.3441 14.56C25.3868 14.4747 25.5148 14.304 25.7281 14.048C25.9628 13.792 26.2401 13.5147 26.5601 13.216C26.8801 12.896 27.2001 12.5973 27.5201 12.32C27.8615 12.0427 28.1388 11.84 28.3521 11.712C28.8001 11.4133 29.2588 11.2747 29.7281 11.296C30.2188 11.3173 30.6348 11.4667 30.9761 11.744C31.0401 11.808 31.1788 11.936 31.3921 12.128C31.6268 12.32 31.8828 12.5333 32.1601 12.768C32.4588 13.0027 32.7148 13.216 32.9281 13.408L34.1121 14.464L33.5681 16.064C33.2908 16.9173 33.2161 17.664 33.3441 18.304C33.4721 18.944 33.6748 19.4987 33.9521 19.968C34.0588 20.2027 34.1975 20.384 34.3681 20.512C34.5601 20.64 34.8055 20.7253 35.1041 20.768C35.2748 20.7893 35.4348 20.8533 35.5841 20.96C35.7335 21.0667 35.8081 21.2373 35.8081 21.472C35.8081 21.984 35.7121 22.3573 35.5201 22.592C35.3495 22.8053 35.1575 22.9333 34.9441 22.976C34.2401 23.0613 33.5681 22.9867 32.9281 22.752C32.2881 22.5173 31.7121 21.9093 31.2001 20.928C31.1148 20.8 30.9975 20.5653 30.8481 20.224C30.7201 19.8613 30.6455 19.6267 30.6241 19.52C30.5388 19.6267 30.4215 19.7653 30.2721 19.936C30.1441 20.0853 30.0161 20.224 29.8881 20.352C28.3735 21.888 27.0721 22.8907 25.9841 23.36C24.9175 23.808 24.0215 23.7973 23.2961 23.328ZM25.0561 20.672C25.2055 20.6933 25.4401 20.6187 25.7601 20.448C26.0801 20.256 26.5068 19.9467 27.0401 19.52C27.7655 18.9013 28.3628 18.3893 28.8321 17.984C29.3015 17.5787 29.7601 17.056 30.2081 16.416L30.9121 15.264C30.6988 14.7733 30.5068 14.4533 30.3361 14.304C30.1655 14.1547 29.9948 14.08 29.8241 14.08C29.5468 14.08 29.2161 14.2613 28.8321 14.624C28.4481 14.9653 28.0108 15.4773 27.5201 16.16C27.0508 16.8213 26.5175 17.6533 25.9201 18.656C25.6428 19.1253 25.4295 19.584 25.2801 20.032C25.1308 20.4587 25.0561 20.672 25.0561 20.672ZM44.6814 23.904C44.3187 23.776 43.988 23.584 43.6894 23.328C43.3907 23.072 43.1134 22.8053 42.8574 22.528C42.772 22.4213 42.644 22.1973 42.4734 21.856C42.324 21.4933 42.1427 21.088 41.9294 20.64C41.7374 20.1707 41.5347 19.7013 41.3214 19.232C41.1294 18.7627 40.948 18.3467 40.7774 17.984C40.6707 18.2613 40.5747 18.5387 40.4894 18.816C40.4254 19.072 40.3934 19.328 40.3934 19.584C40.2014 19.9253 40.0307 20.352 39.8814 20.864C39.7534 21.3547 39.6574 21.6853 39.5934 21.856C39.5294 22.1333 39.4014 22.4 39.2094 22.656C39.0387 22.8907 38.836 23.0933 38.6014 23.264C38.1534 23.2853 37.8227 23.2533 37.6094 23.168C37.4174 23.0613 37.172 22.8267 36.8734 22.464C36.7027 22.1013 36.6174 21.7707 36.6174 21.472C36.6387 21.152 36.692 20.864 36.7774 20.608C36.82 20.416 36.9374 20.0427 37.1294 19.488C37.3427 18.912 37.5774 18.2933 37.8334 17.632C38.0894 16.9493 38.3027 16.352 38.4734 15.84C38.6654 15.3067 38.772 14.9973 38.7934 14.912C38.9427 14.4213 39.1774 13.9413 39.4974 13.472C39.8174 12.9813 40.0307 12.4693 40.1374 11.936C40.2227 11.552 40.404 11.2747 40.6814 11.104C40.9587 10.912 41.2574 10.8373 41.5774 10.88C41.8974 10.9013 42.1534 11.0613 42.3454 11.36C42.4307 11.3813 42.5054 11.4133 42.5694 11.456C42.6547 11.4773 42.7294 11.5413 42.7934 11.648C43.0067 11.8827 43.1347 12.1707 43.1774 12.512C43.2414 12.8533 43.1774 13.184 42.9854 13.504C42.7507 13.9307 42.548 14.2827 42.3774 14.56C42.228 14.8373 42.0787 15.104 41.9294 15.36C41.8014 15.616 41.6627 15.9253 41.5134 16.288C41.7267 16.2453 41.9187 16.2133 42.0894 16.192C42.26 16.1493 42.4094 16.096 42.5374 16.032C42.6867 15.9467 42.836 15.8187 42.9854 15.648C43.1134 15.52 43.3374 15.3067 43.6574 15.008C43.9774 14.688 44.3187 14.3573 44.6814 14.016C45.0654 13.6533 45.3854 13.344 45.6414 13.088C45.9187 12.8107 46.068 12.6613 46.0894 12.64C46.2387 12.448 46.3987 12.2453 46.5694 12.032C46.7614 11.7973 47.0067 11.6373 47.3054 11.552C47.6894 11.5733 47.9987 11.6267 48.2334 11.712C48.4894 11.7973 48.66 11.9467 48.7454 12.16C49.0014 12.416 49.0654 12.7787 48.9374 13.248C48.8307 13.7173 48.6387 14.0693 48.3614 14.304C47.9987 14.5813 47.54 14.944 46.9854 15.392C46.452 15.8187 45.8867 16.2773 45.2894 16.768C44.692 17.2373 44.0947 17.6853 43.4974 18.112C43.732 18.5173 43.9454 18.912 44.1374 19.296C44.3294 19.6587 44.5 19.968 44.6494 20.224C44.884 20.5653 45.0547 20.832 45.1614 21.024C45.268 21.1947 45.588 21.28 46.1214 21.28C46.5054 21.4507 46.7507 21.6213 46.8574 21.792C46.964 21.9627 47.0174 22.1333 47.0174 22.304C47.0174 22.4533 47.028 22.6133 47.0494 22.784C47.0067 22.9973 46.8894 23.232 46.6974 23.488C46.5267 23.7227 46.2707 23.8933 45.9294 24C45.588 24.128 45.172 24.096 44.6814 23.904ZM51.3209 22.816C51.2569 22.7307 51.1182 22.624 50.9049 22.496C50.6915 22.368 50.5849 22.2613 50.5849 22.176C50.5849 22.1333 50.5742 22.08 50.5529 22.016C50.5529 21.952 50.5102 21.92 50.4249 21.92C50.3609 21.856 50.3929 21.6213 50.5209 21.216C50.6702 20.8107 50.8622 20.3307 51.0969 19.776C51.3529 19.2213 51.6195 18.688 51.8969 18.176C52.1742 17.6427 52.4089 17.216 52.6009 16.896C52.7075 16.832 52.7715 16.7467 52.7929 16.64C52.8355 16.512 52.8355 16.448 52.7929 16.448C52.7929 16.448 52.8462 16.352 52.9529 16.16C53.0809 15.9467 53.1769 15.808 53.2409 15.744C53.4115 15.4453 53.5395 15.1467 53.6249 14.848C53.7102 14.528 53.7315 14.2613 53.6889 14.048C53.6035 13.9413 53.5075 13.9093 53.4009 13.952C53.2942 13.9947 53.2409 14.016 53.2409 14.016C53.1555 14.0373 53.0275 14.08 52.8569 14.144C52.7075 14.1867 52.5689 14.2507 52.4409 14.336C51.9502 14.6773 51.5875 14.848 51.3529 14.848C51.1395 14.848 50.9262 14.592 50.7129 14.08C50.6275 13.8453 50.5955 13.6213 50.6169 13.408C50.6382 13.1947 50.7235 13.024 50.8729 12.896C51.0435 12.7467 51.2569 12.5973 51.5129 12.448C51.7689 12.2773 51.9395 12.16 52.0249 12.096C52.2595 11.9467 52.5902 11.7867 53.0169 11.616C53.4435 11.4453 53.6995 11.3493 53.7849 11.328C54.3395 11.1573 54.8089 11.1573 55.1929 11.328C55.5769 11.4773 55.8649 11.776 56.0569 12.224C56.3555 12.5867 56.5049 12.9707 56.5049 13.376C56.5049 13.7813 56.3555 14.2827 56.0569 14.88L55.7369 15.36C55.6302 15.5733 55.6089 15.68 55.6729 15.68C55.7582 15.68 55.8542 15.6053 55.9609 15.456C56.0249 15.3707 56.1529 15.2427 56.3449 15.072C56.5369 14.9013 56.6649 14.816 56.7289 14.816C56.7289 14.816 56.7502 14.8053 56.7929 14.784C56.8569 14.7627 56.8889 14.6773 56.8889 14.528C56.9529 14.464 57.0169 14.4 57.0809 14.336C57.1662 14.272 57.2089 14.24 57.2089 14.24C57.2942 14.24 57.4009 14.1973 57.5289 14.112C57.6782 14.0053 57.9235 13.8133 58.2649 13.536C58.4995 13.3653 58.7129 13.28 58.9049 13.28C59.3955 13.1307 59.7902 13.2907 60.0889 13.76C60.4089 14.2293 60.5689 14.8373 60.5689 15.584L59.8969 17.312L61.0489 15.904C61.1769 15.7333 61.3049 15.584 61.4329 15.456C61.5822 15.328 61.7102 15.2213 61.8169 15.136C61.8595 14.9867 61.9235 14.9013 62.0089 14.88C62.0942 14.8587 62.1369 14.848 62.1369 14.848C62.1369 14.848 62.1582 14.848 62.2009 14.848C62.2435 14.8267 62.2649 14.784 62.2649 14.72C62.3715 14.6347 62.4889 14.56 62.6169 14.496C62.7449 14.4107 62.8302 14.3253 62.8729 14.24C63.2355 14.0907 63.6729 14.0693 64.1849 14.176C64.6969 14.2613 65.0595 14.528 65.2729 14.976C65.4222 15.232 65.5609 15.456 65.6889 15.648C65.8169 15.84 65.8809 16.128 65.8809 16.512C65.8382 16.832 65.7955 17.056 65.7529 17.184C65.7315 17.312 65.7102 17.4507 65.6889 17.6C65.6675 17.728 65.6355 17.9627 65.5929 18.304C65.5075 18.4747 65.4542 18.656 65.4329 18.848C65.4329 19.04 65.4329 19.2213 65.4329 19.392C65.4329 19.6693 65.4435 19.8613 65.4649 19.968C65.4862 20.0533 65.5715 20.096 65.7209 20.096C66.0195 20.032 66.2649 19.936 66.4569 19.808C66.6702 19.6587 66.9049 19.4667 67.1609 19.232C67.4809 18.9333 67.7582 18.8907 67.9929 19.104C68.2489 19.296 68.4089 19.52 68.4729 19.776C68.5155 19.8613 68.4729 20.0533 68.3449 20.352C68.2169 20.6507 68.0675 20.9387 67.8969 21.216C67.7262 21.4933 67.5875 21.632 67.4809 21.632C67.4169 21.632 67.2889 21.7173 67.0969 21.888C66.9049 22.0587 66.7555 22.176 66.6489 22.24C66.4995 22.3893 66.3502 22.528 66.2009 22.656C66.0729 22.784 65.9235 22.848 65.7529 22.848C65.6675 22.848 65.5609 22.88 65.4329 22.944C65.3262 22.9867 65.1982 23.008 65.0489 23.008C64.8355 23.072 64.5049 23.04 64.0569 22.912C63.6302 22.784 63.3529 22.4853 63.2249 22.016C63.1395 21.7813 63.0115 21.4827 62.8409 21.12C62.6915 20.7573 62.6595 20.3093 62.7449 19.776C62.8302 19.392 62.8835 19.04 62.9049 18.72C62.9262 18.4 62.9689 18.176 63.0329 18.048C63.0329 17.984 63.0329 17.8347 63.0329 17.6C63.0329 17.344 63.0009 17.216 62.9369 17.216C62.8515 17.216 62.6915 17.3227 62.4569 17.536C62.2222 17.7493 61.9449 18.0373 61.6249 18.4C61.3049 18.7413 60.9742 19.1147 60.6329 19.52C60.3129 19.9253 60.0249 20.3307 59.7689 20.736C59.5769 20.9707 59.4062 21.2587 59.2569 21.6C59.1075 21.9413 59.0009 22.1333 58.9369 22.176C58.7875 22.3467 58.5315 22.368 58.1689 22.24C57.8275 22.112 57.5715 21.9093 57.4009 21.632C57.3369 21.504 57.2622 21.4293 57.1769 21.408C57.0915 21.3653 57.0169 21.3013 56.9529 21.216C56.9102 21.1093 56.9102 20.9067 56.9529 20.608C57.0169 20.3093 57.1555 19.8293 57.3689 19.168C57.6035 18.4427 57.8062 17.792 57.9769 17.216C58.1689 16.6187 58.2649 16.32 58.2649 16.32C58.2649 16.2347 58.1049 16.32 57.7849 16.576C57.4649 16.8107 57.0915 17.1093 56.6649 17.472C56.4729 17.7067 56.2169 18.0053 55.8969 18.368C55.5982 18.7307 55.2462 19.1573 54.8409 19.648C54.4569 20.1387 54.0195 20.7147 53.5289 21.376C52.9102 22.2507 52.4409 22.784 52.1209 22.976C51.8222 23.168 51.5555 23.1147 51.3209 22.816ZM74.3741 23.744C73.9261 23.8293 73.5848 23.808 73.3501 23.68C73.1368 23.5307 72.9128 23.3493 72.6781 23.136C72.3368 22.9653 72.0275 22.7307 71.7501 22.432C71.4728 22.112 71.2595 21.7813 71.1101 21.44C70.9608 21.0987 70.8968 20.832 70.9181 20.64C70.9821 19.8933 71.1528 19.0827 71.4301 18.208C71.7288 17.3333 72.1021 16.48 72.5501 15.648C73.0195 14.816 73.5421 14.08 74.1181 13.44C74.7155 12.7787 75.3555 12.2987 76.0381 12C76.4648 11.8293 76.9235 11.7653 77.4141 11.808C77.9048 11.8507 78.2355 12.0533 78.4061 12.416C78.7261 13.0347 78.6515 13.4293 78.1821 13.6C78.1181 13.6 78.0435 13.632 77.9581 13.696C77.8728 13.7387 77.8301 13.8027 77.8301 13.888C77.9155 13.9307 78.1501 13.9413 78.5341 13.92C78.9181 13.8773 79.3021 13.8133 79.6861 13.728C80.0915 13.6213 80.3581 13.5147 80.4861 13.408C80.6141 13.344 80.7101 13.312 80.7741 13.312C80.8381 13.312 80.9981 13.3333 81.2541 13.376C81.6168 13.4827 81.7981 13.6107 81.7981 13.76C81.7981 13.8453 81.8301 13.984 81.8941 14.176C81.9581 14.3467 82.0328 14.432 82.1181 14.432C82.2675 14.4533 82.2995 14.6027 82.2141 14.88C82.1501 15.1573 81.9048 15.4453 81.4781 15.744C81.0728 16 80.8168 16.1707 80.7101 16.256C80.6248 16.32 80.6141 16.4693 80.6781 16.704C80.8488 17.1093 80.8381 17.6 80.6461 18.176C80.4541 18.752 80.1341 19.3493 79.6861 19.968C79.2381 20.5867 78.7048 21.1733 78.0861 21.728C77.4888 22.2613 76.8595 22.72 76.1981 23.104C75.5581 23.4667 74.9501 23.68 74.3741 23.744ZM74.4701 21.056C74.5555 21.056 74.7048 21.0133 74.9181 20.928C75.1315 20.8213 75.3021 20.736 75.4301 20.672C75.5155 20.5867 75.6221 20.4907 75.7501 20.384C75.8995 20.256 76.0168 20.1813 76.1021 20.16C76.1875 20.16 76.2408 20.128 76.2621 20.064C76.2835 19.9787 76.3581 19.8187 76.4861 19.584C76.6141 19.328 76.8701 18.9547 77.2541 18.464C77.6808 17.9947 77.9581 17.6213 78.0861 17.344C78.2141 17.0453 78.2248 16.7253 78.1181 16.384C78.0968 16.2987 78.0328 16.2453 77.9261 16.224C77.8408 16.2027 77.7235 16.1493 77.5741 16.064C77.3608 16.064 77.2115 16.1173 77.1261 16.224C77.0621 16.3093 76.9128 16.256 76.6781 16.064L76.1661 15.424L75.6221 15.968C75.2808 16.3093 74.9715 16.736 74.6941 17.248C74.4381 17.76 74.2355 18.2827 74.0861 18.816C73.9368 19.3493 73.8408 19.8187 73.7981 20.224C73.7768 20.544 73.8301 20.7573 73.9581 20.864C74.0861 20.9707 74.2568 21.0347 74.4701 21.056ZM85.4319 24.8C85.3252 24.8 85.1439 24.7467 84.8879 24.64C84.6319 24.5547 84.3865 24.4373 84.1519 24.288C83.9385 24.1387 83.8319 23.9787 83.8319 23.808C83.8319 23.808 83.8212 23.744 83.7999 23.616C83.7999 23.4667 83.7572 23.3173 83.6719 23.168C83.6719 22.9973 83.6719 22.8053 83.6719 22.592C83.6932 22.3573 83.7465 22.1227 83.8319 21.888C83.8319 21.6533 83.8639 21.3973 83.9279 21.12C83.9919 20.8213 84.0665 20.5973 84.1519 20.448C84.1519 20.2133 84.2052 19.9147 84.3119 19.552C84.4399 19.168 84.5465 18.816 84.6319 18.496C84.8665 17.792 85.0372 17.28 85.1439 16.96C85.2719 16.64 85.3572 16.4053 85.3999 16.256C85.4425 16.0853 85.4639 15.9147 85.4639 15.744C85.5279 15.5733 85.6239 15.264 85.7519 14.816C85.8799 14.368 86.0079 13.9093 86.1359 13.44C86.2852 12.9493 86.3812 12.5973 86.4239 12.384C86.5092 12.2987 86.5519 12.224 86.5519 12.16C86.5732 12.0747 86.5839 11.9893 86.5839 11.904C86.5839 11.904 86.6585 11.6587 86.8079 11.168C86.9572 10.6773 87.1492 10.112 87.3839 9.472C87.7679 8.34133 88.0239 7.52 88.1519 7.008C88.3012 6.496 88.3652 6.13333 88.3439 5.92C88.3439 5.70667 88.2905 5.49333 88.1839 5.28C88.0345 5.00267 88.0345 4.78933 88.1839 4.64C88.2692 4.55467 88.3439 4.45867 88.4079 4.352C88.4719 4.224 88.5039 4.16 88.5039 4.16C88.5039 4.11733 88.6532 4.032 88.9519 3.904C89.2719 3.75467 89.6559 3.59467 90.1039 3.424C90.5519 3.232 90.9999 3.06133 91.4479 2.912C91.8959 2.74133 92.2585 2.61333 92.5359 2.528C92.5999 2.528 92.7492 2.528 92.9839 2.528C93.2399 2.528 93.5065 2.528 93.7839 2.528C94.0825 2.528 94.3172 2.528 94.4879 2.528C95.0425 2.61333 95.6079 2.77333 96.1839 3.008C96.7812 3.24267 97.2825 3.57333 97.6879 4C97.9439 4.23467 98.2212 4.56533 98.5199 4.992C98.8399 5.41867 99.1599 5.99467 99.4799 6.72C99.4799 6.80533 99.5012 6.98667 99.5439 7.264C99.6079 7.52 99.6399 7.776 99.6399 8.032C99.6399 8.672 99.4799 9.39733 99.1599 10.208C98.8612 11.0187 98.4132 11.84 97.8159 12.672C97.2185 13.4827 96.4932 14.24 95.6399 14.944C94.7439 15.6693 93.8159 16.16 92.8559 16.416C91.8959 16.672 91.0425 16.7253 90.2959 16.576C89.8692 16.4053 89.5812 16.1707 89.4319 15.872C89.2825 15.552 89.2185 15.2533 89.2399 14.976C89.2612 14.6987 89.3039 14.528 89.3679 14.464C89.5385 14.4213 89.7945 14.4107 90.1359 14.432C90.4772 14.432 91.0212 14.2933 91.7679 14.016C92.0025 13.9307 92.2479 13.8347 92.5039 13.728C92.7599 13.6 92.9625 13.4933 93.1119 13.408C93.5385 13.1307 93.9652 12.7787 94.3919 12.352C94.8399 11.9253 95.2985 11.3387 95.7679 10.592C95.9599 10.2933 96.0985 9.96267 96.1839 9.6C96.2692 9.23733 96.3225 8.87467 96.3439 8.512C96.3865 8.128 96.4079 7.79733 96.4079 7.52C96.5785 6.96533 96.4719 6.50667 96.0879 6.144C95.7252 5.76 95.1385 5.52533 94.3279 5.44C94.0719 5.376 93.7519 5.36533 93.3679 5.408C93.0052 5.45067 92.6639 5.52533 92.3439 5.632C92.0239 5.71733 91.7785 5.81333 91.6079 5.92C91.5225 5.92 91.4692 5.984 91.4479 6.112C91.4265 6.24 91.3732 6.38933 91.2879 6.56C91.2879 6.70933 91.2239 7.02933 91.0959 7.52C90.9679 7.98933 90.8185 8.42667 90.6479 8.832C90.4985 9.30133 90.3172 9.824 90.1039 10.4C89.8905 10.9547 89.7412 11.392 89.6559 11.712C89.5705 12.0533 89.4639 12.384 89.3359 12.704C89.2292 13.024 89.1759 13.184 89.1759 13.184C89.1759 13.2693 89.1119 13.4507 88.9839 13.728C88.8772 14.0053 88.7812 14.304 88.6959 14.624C88.6105 15.0293 88.4932 15.488 88.3439 16C88.2159 16.512 88.0665 16.9707 87.8959 17.376C87.6612 18.1653 87.4585 18.9547 87.2879 19.744C87.1172 20.512 87.1065 21.0133 87.2559 21.248C87.8959 21.2693 88.2265 21.408 88.2479 21.664C88.2905 21.8987 87.9599 22.4533 87.2559 23.328C87.0425 23.8613 86.8292 24.224 86.6159 24.416C86.4025 24.6293 86.1892 24.7467 85.9759 24.768C85.7839 24.7893 85.6025 24.8 85.4319 24.8ZM108.67 24.544C108.286 24.5867 107.945 24.5013 107.646 24.288C107.348 24.0747 107.113 23.84 106.942 23.584C106.729 23.2427 106.569 22.848 106.462 22.4C106.356 21.9307 106.302 21.4933 106.302 21.088C106.302 21.0667 106.292 21.0453 106.27 21.024C106.27 21.0027 106.27 20.992 106.27 20.992C106.27 20.9707 106.26 20.9707 106.238 20.992C105.982 21.2693 105.609 21.6107 105.118 22.016C104.649 22.4 104.148 22.7413 103.614 23.04C103.102 23.3173 102.644 23.4453 102.238 23.424C101.982 23.4027 101.726 23.2853 101.47 23.072C101.236 22.8373 101.022 22.5707 100.83 22.272C100.638 21.9733 100.51 21.7067 100.446 21.472C100.361 21.1307 100.382 20.576 100.51 19.808C100.638 19.0187 100.83 18.144 101.086 17.184C101.364 16.2027 101.684 15.264 102.046 14.368C102.409 13.4507 102.782 12.704 103.166 12.128C103.572 11.5307 103.956 11.232 104.318 11.232C104.638 11.232 104.916 11.4027 105.15 11.744C105.385 12.064 105.556 12.352 105.662 12.608C105.79 12.928 105.854 13.152 105.854 13.28C105.854 13.3867 105.737 13.568 105.502 13.824C105.289 14.0373 105.065 14.3893 104.83 14.88C104.596 15.3493 104.361 15.8827 104.126 16.48C103.892 17.056 103.678 17.6 103.486 18.112C103.316 18.624 103.177 19.0293 103.07 19.328C103.028 19.5627 102.985 19.744 102.942 19.872C102.9 20 102.868 20.1493 102.846 20.32C102.889 20.32 102.932 20.32 102.974 20.32C103.038 20.2987 103.092 20.2773 103.134 20.256C103.54 20.1067 103.956 19.808 104.382 19.36C104.83 18.912 105.268 18.3787 105.694 17.76C106.121 17.12 106.526 16.4693 106.91 15.808C107.316 15.1253 107.7 14.496 108.062 13.92C108.425 13.3227 108.745 12.8427 109.022 12.48C109.321 12.096 109.566 11.904 109.758 11.904C109.972 11.8827 110.228 11.936 110.526 12.064C110.825 12.1707 111.07 12.3307 111.262 12.544C111.476 12.736 111.561 12.96 111.518 13.216C111.433 13.7067 111.209 14.336 110.846 15.104C110.484 15.8507 110.11 16.672 109.726 17.568C109.364 18.464 109.097 19.392 108.926 20.352C108.841 20.8427 108.873 21.28 109.022 21.664C109.172 22.0267 109.396 22.3893 109.694 22.752C110.036 23.1573 110.057 23.552 109.758 23.936C109.481 24.2987 109.118 24.5013 108.67 24.544ZM114.961 23.776C114.684 23.7547 114.364 23.712 114.001 23.648C113.66 23.584 113.361 23.456 113.105 23.264C112.849 23.072 112.721 22.7947 112.721 22.432C112.721 22.2613 112.732 22.1013 112.753 21.952C112.774 21.8027 112.828 21.664 112.913 21.536C112.934 21.4933 112.956 21.4613 112.977 21.44C112.998 21.4187 113.02 21.3973 113.041 21.376C113.02 21.2693 112.998 21.1627 112.977 21.056C112.977 20.9493 112.988 20.8427 113.009 20.736C113.116 20.4587 113.18 20.2027 113.201 19.968C113.222 19.712 113.276 19.4453 113.361 19.168C113.382 19.1253 113.393 19.0827 113.393 19.04C113.393 18.9973 113.404 18.9653 113.425 18.944C113.553 18.496 113.67 18.0373 113.777 17.568C113.884 17.0987 114.044 16.6613 114.257 16.256C114.641 15.488 114.993 14.72 115.313 13.952C115.654 13.1627 115.985 12.3733 116.305 11.584C116.433 11.264 116.582 11.04 116.753 10.912C116.924 10.784 117.105 10.72 117.297 10.72C117.681 10.72 118.065 10.9013 118.449 11.264C118.833 11.6053 119.132 11.9573 119.345 12.32C119.132 12.7253 118.897 13.1413 118.641 13.568C118.385 13.9733 118.14 14.3893 117.905 14.816C117.67 15.2213 117.489 15.648 117.361 16.096C117.66 16.1173 117.948 16.1067 118.225 16.064C118.502 16.0213 118.79 16.0213 119.089 16.064C119.452 16.0853 119.814 16.064 120.177 16C120.54 15.9147 120.892 15.8933 121.233 15.936C121.297 15.6587 121.393 15.3067 121.521 14.88C121.649 14.432 121.809 13.9733 122.001 13.504C122.193 13.0347 122.406 12.6187 122.641 12.256C122.897 11.8933 123.164 11.6587 123.441 11.552C123.782 11.424 124.049 11.4347 124.241 11.584C124.433 11.7333 124.646 11.8933 124.881 12.064C125.265 12.3413 125.5 12.5653 125.585 12.736C125.692 12.9067 125.681 13.0987 125.553 13.312C125.446 13.504 125.276 13.792 125.041 14.176C124.892 14.4107 124.774 14.6773 124.689 14.976C124.625 15.2533 124.508 15.52 124.337 15.776C124.294 15.84 124.209 16.032 124.081 16.352C123.974 16.672 123.836 17.0667 123.665 17.536C123.494 17.984 123.334 18.4427 123.185 18.912C123.036 19.36 122.908 19.7653 122.801 20.128C122.694 20.4693 122.63 20.6827 122.609 20.768C122.566 21.0453 122.524 21.3227 122.481 21.6C122.438 21.8773 122.406 22.1653 122.385 22.464C122.364 22.8053 122.257 23.0507 122.065 23.2C121.873 23.328 121.638 23.392 121.361 23.392C121.084 23.392 120.806 23.3387 120.529 23.232C120.252 23.1253 120.028 23.008 119.857 22.88C119.686 22.7307 119.558 22.56 119.473 22.368C119.409 22.176 119.377 21.9733 119.377 21.76C119.377 21.376 119.452 20.992 119.601 20.608C119.75 20.224 119.868 19.9253 119.953 19.712C119.996 19.5413 120.049 19.3813 120.113 19.232C120.198 19.0613 120.262 18.8907 120.305 18.72C119.708 18.656 119.1 18.6453 118.481 18.688C117.884 18.7307 117.276 18.784 116.657 18.848C116.529 19.104 116.412 19.4027 116.305 19.744C116.22 20.0853 116.134 20.448 116.049 20.832C115.985 21.216 115.9 21.5893 115.793 21.952C115.729 22.208 115.654 22.4533 115.569 22.688C115.505 22.9013 115.42 23.104 115.313 23.296C115.206 23.488 115.089 23.648 114.961 23.776ZM126.449 23.264C126.428 22.9867 126.46 22.6027 126.545 22.112C126.652 21.6213 126.769 21.1413 126.897 20.672C127.046 20.2027 127.164 19.8613 127.249 19.648C127.441 19.0507 127.633 18.4533 127.825 17.856C128.038 17.2373 128.241 16.6293 128.433 16.032C128.646 15.4347 128.838 14.88 129.009 14.368C129.009 14.3467 129.009 14.336 129.009 14.336C129.03 14.3147 129.041 14.2933 129.041 14.272C129.041 14.2507 129.041 14.2293 129.041 14.208C129.041 14.1653 129.041 14.1227 129.041 14.08C129.041 14.0373 129.041 13.984 129.041 13.92C128.956 13.472 128.998 13.1093 129.169 12.832C129.361 12.5547 129.478 12.3627 129.521 12.256C129.713 12.0853 129.926 11.968 130.161 11.904C130.396 11.84 130.662 11.8933 130.961 12.064C131.281 11.9787 131.729 11.8933 132.305 11.808C132.902 11.7227 133.34 11.616 133.617 11.488C133.894 11.4667 134.129 11.4453 134.321 11.424C134.513 11.4027 134.705 11.392 134.897 11.392C135.089 11.3707 135.324 11.3813 135.601 11.424C135.878 11.424 136.177 11.5307 136.497 11.744C136.817 11.936 137.126 12.224 137.425 12.608C137.468 12.992 137.436 13.3013 137.329 13.536C137.222 13.7493 136.998 13.8773 136.657 13.92C136.529 13.92 136.262 13.92 135.857 13.92C135.473 13.92 135.068 13.9413 134.641 13.984C134.214 14.0053 133.862 14.0693 133.585 14.176C133.372 14.24 133.158 14.2933 132.945 14.336C132.732 14.3573 132.529 14.3787 132.337 14.4C132.166 14.4 132.006 14.432 131.857 14.496C131.729 14.7733 131.622 15.0933 131.537 15.456C131.473 15.8187 131.388 16.1387 131.281 16.416C131.174 16.7573 131.068 17.088 130.961 17.408C130.854 17.7067 130.748 18.0053 130.641 18.304C130.556 18.5813 130.47 18.848 130.385 19.104C130.257 19.5307 130.129 19.9253 130.001 20.288C129.894 20.6293 129.788 20.9493 129.681 21.248C129.596 21.5253 129.51 21.792 129.425 22.048C129.276 22.5173 129.148 22.9013 129.041 23.2C128.934 23.4773 128.849 23.7013 128.785 23.872C128.742 24.0213 128.689 24.1387 128.625 24.224C128.476 24.3093 128.284 24.3733 128.049 24.416C127.814 24.4587 127.59 24.4693 127.377 24.448C127.036 24.4053 126.801 24.2773 126.673 24.064C126.566 23.872 126.492 23.6053 126.449 23.264Z" fill="#FF5C39"/>
</g>
<defs>
<clipPath id="clip0_2001_1717">
<rect width="139" height="27" fill="white"/>
</clipPath>
</defs>
</svg>
