<svg width="1361" height="480" viewBox="0 0 1361 480" fill="none" xmlns="http://www.w3.org/2000/svg">
<path d="M0 388.477V297.613L206.653 0H331.56V291.029H385.185V388.477H331.56V474.074H219.732V388.477H0ZM227.58 123.786L117.714 291.029H227.58V123.786Z" fill="#FFE7E1"/>
<circle cx="680" cy="240" r="240" fill="#FFE7E1"/>
<circle cx="680" cy="240" r="157.037" fill="white"/>
<path d="M703.443 148.148L698.189 271.73H660.094L654.839 148.148H703.443ZM679.798 337.778C671.916 337.778 665.436 335.542 660.356 331.07C655.452 326.426 653 320.75 653 314.042C653 307.162 655.452 301.4 660.356 296.756C665.436 292.112 671.916 289.79 679.798 289.79C687.505 289.79 693.81 292.112 698.714 296.756C703.794 301.4 706.333 307.162 706.333 314.042C706.333 320.75 703.794 326.426 698.714 331.07C693.81 335.542 687.505 337.778 679.798 337.778Z" fill="#FFE7E1"/>
<path d="M975 388.477V297.613L1181.65 0H1306.56V291.029H1360.19V388.477H1306.56V474.074H1194.73V388.477H975ZM1202.58 123.786L1092.71 291.029H1202.58V123.786Z" fill="#FFE7E1"/>
</svg>
